<svg class="main-svg" xmlns="http://www.w3.org/2000/svg" xmlns:xlink="http://www.w3.org/1999/xlink" width="800" height="600"><rect x="0" y="0" width="800" height="600" style="fill: rgb(255, 255, 255); fill-opacity: 1;"/><defs id="defs-8ec3f7"><g class="clips"><clipPath class="axesclip" id="clip8ec3f7x"><rect x="80" y="0" width="606" height="600"/></clipPath><clipPath class="axesclip" id="clip8ec3f7y"><rect x="0" y="100" width="800" height="420"/></clipPath><clipPath class="axesclip" id="clip8ec3f7xy"><rect x="80" y="100" width="606" height="420"/></clipPath><clipPath class="plotclip" id="clip8ec3f7xyplot"><rect width="606" height="420"/></clipPath></g></defs><g class="layer-below"><g class="imagelayer"/><g class="shapelayer"/></g><g class="subplot xy"><rect x="80" y="100" width="606" height="420" style="stroke-width: 0; fill: rgb(255, 255, 255); fill-opacity: 1;"/><g class="layer-subplot"><g class="shapelayer"/><g class="imagelayer"/></g><g transform="translate(80,100)"><path class="ygrid crisp" d="M0,0h606" transform="translate(0,343.77)" style="stroke: rgb(238, 238, 238); stroke-opacity: 1; stroke-width: 1px;"/><path class="ygrid crisp" d="M0,0h606" transform="translate(0,267.55)" style="stroke: rgb(238, 238, 238); stroke-opacity: 1; stroke-width: 1px;"/><path class="ygrid crisp" d="M0,0h606" transform="translate(0,191.32)" style="stroke: rgb(238, 238, 238); stroke-opacity: 1; stroke-width: 1px;"/><path class="ygrid crisp" d="M0,0h606" transform="translate(0,115.1)" style="stroke: rgb(238, 238, 238); stroke-opacity: 1; stroke-width: 1px;"/><path class="ygrid crisp" d="M0,0h606" transform="translate(0,38.87)" style="stroke: rgb(238, 238, 238); stroke-opacity: 1; stroke-width: 1px;"/></g><g/><g transform="translate(80,100)"><path class="yzl zl crisp" d="M0,0h606" transform="translate(0,420)" style="stroke: rgb(68, 68, 68); stroke-opacity: 1; stroke-width: 1px;"/></g><g/><g transform="translate(80, 100)" clip-path="url(#clip8ec3f7xyplot)"><g class="imagelayer"/><g class="maplayer"/><g class="barlayer"/><g class="boxlayer"><g class="trace boxes" style="opacity: 1;"><path class="box" d="M25.75,340.81H75.24M25.75,341.01H75.24V340.65H25.75ZM50.5,341.01V342.15M50.5,340.65V340.09M38.13,342.15H62.87M38.13,340.09H62.87" style="stroke-width: 2px; stroke: rgb(31, 119, 180); stroke-opacity: 1; fill: rgb(31, 119, 180); fill-opacity: 0.5;"/><path class="box" d="M126.76,340.21H176.25M126.76,340.51H176.25V339.86H126.76ZM151.5,340.51V341.26M151.5,339.86V337.14M139.13,341.26H163.87M139.13,337.14H163.87" style="stroke-width: 2px; stroke: rgb(31, 119, 180); stroke-opacity: 1; fill: rgb(31, 119, 180); fill-opacity: 0.5;"/><path class="box" d="M227.76,341.18H277.25M227.76,341.62H277.25V340.52H227.76ZM252.5,341.62V341.95M252.5,340.52V337.44M240.13,341.95H264.87M240.13,337.44H264.87" style="stroke-width: 2px; stroke: rgb(31, 119, 180); stroke-opacity: 1; fill: rgb(31, 119, 180); fill-opacity: 0.5;"/><path class="box" d="M328.76,339.5H378.25M328.76,339.88H378.25V338.5H328.76ZM353.5,339.88V340.44M353.5,338.5V336.41M341.13,340.44H365.87M341.13,336.41H365.87" style="stroke-width: 2px; stroke: rgb(31, 119, 180); stroke-opacity: 1; fill: rgb(31, 119, 180); fill-opacity: 0.5;"/><path class="box" d="M429.76,337.83H479.25M429.76,338.18H479.25V337.52H429.76ZM454.5,338.18V338.94M454.5,337.52V333.5M442.13,338.94H466.87M442.13,333.5H466.87" style="stroke-width: 2px; stroke: rgb(31, 119, 180); stroke-opacity: 1; fill: rgb(31, 119, 180); fill-opacity: 0.5;"/><path class="box" d="M530.76,334.51H580.25M530.76,334.96H580.25V334.13H530.76ZM555.5,334.96V335.39M555.5,334.13V328.59M543.13,335.39H567.87M543.13,328.59H567.87" style="stroke-width: 2px; stroke: rgb(31, 119, 180); stroke-opacity: 1; fill: rgb(31, 119, 180); fill-opacity: 0.5;"/></g><g class="trace boxes" style="opacity: 1;"><path class="box" d="M25.75,320.23H75.24M25.75,322.09H75.24V318.33H25.75ZM50.5,322.09V324.57M50.5,318.33V309.53M38.13,324.57H62.87M38.13,309.53H62.87" style="stroke-width: 2px; stroke: rgb(255, 127, 14); stroke-opacity: 1; fill: rgb(255, 127, 14); fill-opacity: 0.5;"/><path class="box" d="M126.76,236.54H176.25M126.76,243.64H176.25V228.56H126.76ZM151.5,243.64V251.53M151.5,228.56V130.08M139.13,251.53H163.87M139.13,130.08H163.87" style="stroke-width: 2px; stroke: rgb(255, 127, 14); stroke-opacity: 1; fill: rgb(255, 127, 14); fill-opacity: 0.5;"/><path class="box" d="M227.76,221.62H277.25M227.76,229.23H277.25V217.58H227.76ZM252.5,229.23V237.27M252.5,217.58V197.71M240.13,237.27H264.87M240.13,197.71H264.87" style="stroke-width: 2px; stroke: rgb(255, 127, 14); stroke-opacity: 1; fill: rgb(255, 127, 14); fill-opacity: 0.5;"/><path class="box" d="M328.76,131.73H378.25M328.76,142.7H378.25V105.6H328.76ZM353.5,142.7V161.44M353.5,105.6V21M341.13,161.44H365.87M341.13,21H365.87" style="stroke-width: 2px; stroke: rgb(255, 127, 14); stroke-opacity: 1; fill: rgb(255, 127, 14); fill-opacity: 0.5;"/><path class="box" d="M429.76,190.88H479.25M429.76,199.41H479.25V184.79H429.76ZM454.5,199.41V211.45M454.5,184.79V145.64M442.13,211.45H466.87M442.13,145.64H466.87" style="stroke-width: 2px; stroke: rgb(255, 127, 14); stroke-opacity: 1; fill: rgb(255, 127, 14); fill-opacity: 0.5;"/><path class="box" d="M530.76,149.09H580.25M530.76,419.96H580.25V112.43H530.76ZM555.5,419.96V419.96M555.5,112.43V69.12M543.13,419.96H567.87M543.13,69.12H567.87" style="stroke-width: 2px; stroke: rgb(255, 127, 14); stroke-opacity: 1; fill: rgb(255, 127, 14); fill-opacity: 0.5;"/></g></g><g class="scatterlayer"/></g><g/><path class="crisp" transform="translate(80,100)" d="M-1,420.5h608" style="fill: none; stroke-width: 1px; stroke: rgb(0, 0, 0); stroke-opacity: 0;"/><path class="crisp" transform="translate(80,100)" d="M-0.5,-1v421" stroke-width="1px" style="fill: none; stroke: rgb(0, 0, 0); stroke-opacity: 0;"/><g/><g transform="translate(80,100)"><g class="xtick"><text text-anchor="middle" x="0" y="440" transform="translate(50.5,0)" style="font-family: 'Courier New', monospace; font-size: 18px; fill: rgb(127, 127, 127); fill-opacity: 1; visibility: visible; white-space: pre;" data-bb="54">1</text></g><g class="xtick"><text text-anchor="middle" x="0" y="440" transform="translate(151.5,0)" style="font-family: 'Courier New', monospace; font-size: 18px; fill: rgb(127, 127, 127); fill-opacity: 1; visibility: visible; white-space: pre;" data-bb="55">2</text></g><g class="xtick"><text text-anchor="middle" x="0" y="440" transform="translate(252.5,0)" style="font-family: 'Courier New', monospace; font-size: 18px; fill: rgb(127, 127, 127); fill-opacity: 1; visibility: visible; white-space: pre;" data-bb="56">3</text></g><g class="xtick"><text text-anchor="middle" x="0" y="440" transform="translate(353.5,0)" style="font-family: 'Courier New', monospace; font-size: 18px; fill: rgb(127, 127, 127); fill-opacity: 1; visibility: visible; white-space: pre;" data-bb="57">4</text></g><g class="xtick"><text text-anchor="middle" x="0" y="440" transform="translate(454.5,0)" style="font-family: 'Courier New', monospace; font-size: 18px; fill: rgb(127, 127, 127); fill-opacity: 1; visibility: visible; white-space: pre;" data-bb="58">5</text></g><g class="xtick"><text text-anchor="middle" x="0" y="440" transform="translate(555.5,0)" style="font-family: 'Courier New', monospace; font-size: 18px; fill: rgb(127, 127, 127); fill-opacity: 1; visibility: visible; white-space: pre;" data-bb="59">6</text></g></g><g transform="translate(80,100)"><g class="ytick" data-bb="62"><text text-anchor="end" x="-2" y="9" transform="translate(0,420)" style="font-family: 'Courier New', monospace; font-size: 18px; fill: rgb(127, 127, 127); fill-opacity: 1; visibility: visible; white-space: pre;">0</text></g><g class="ytick" data-bb="63"><text text-anchor="end" x="-2" y="9" transform="translate(0,343.77)" style="font-family: 'Courier New', monospace; font-size: 18px; fill: rgb(127, 127, 127); fill-opacity: 1; visibility: visible; white-space: pre;">0.5M</text></g><g class="ytick" data-bb="64"><text text-anchor="end" x="-2" y="9" transform="translate(0,267.55)" style="font-family: 'Courier New', monospace; font-size: 18px; fill: rgb(127, 127, 127); fill-opacity: 1; visibility: visible; white-space: pre;">1M</text></g><g class="ytick" data-bb="65"><text text-anchor="end" x="-2" y="9" transform="translate(0,191.32)" style="font-family: 'Courier New', monospace; font-size: 18px; fill: rgb(127, 127, 127); fill-opacity: 1; visibility: visible; white-space: pre;">1.5M</text></g><g class="ytick" data-bb="66"><text text-anchor="end" x="-2" y="9" transform="translate(0,115.1)" style="font-family: 'Courier New', monospace; font-size: 18px; fill: rgb(127, 127, 127); fill-opacity: 1; visibility: visible; white-space: pre;">2M</text></g><g class="ytick" data-bb="67"><text text-anchor="end" x="-2" y="9" transform="translate(0,38.87)" style="font-family: 'Courier New', monospace; font-size: 18px; fill: rgb(127, 127, 127); fill-opacity: 1; visibility: visible; white-space: pre;">2.5M</text></g></g><g/></g><g class="ternarylayer"/><g class="layer-above"><g class="imagelayer"/><g class="shapelayer"/></g><g class="pielayer"/><g class="glimages"/><g class="geoimages"/><text class="js-plot-link-container" y="591" text-anchor="end" x="793" style="font-family: 'Open Sans', Arial, sans-serif; font-size: 12px; fill: rgb(68, 68, 68); pointer-events: all;"><tspan class="js-link-to-tool"/><tspan class="js-link-spacer"/><tspan class="js-sourcelinks"/></text><defs id="topdefs-8ec3f7"><clipPath id="legend8ec3f7"><rect width="90" height="63" x="0" y="0"/></clipPath></defs><g class="infolayer"><g class="g-gtitle"><text class="gtitle" x="400" y="50" text-anchor="middle" style="font-family: 'Courier New', monospace; font-size: 25px; fill: rgb(127, 127, 127); opacity: 1; font-weight: normal; white-space: pre; visibility: visible;">Execution Time, Workload E</text></g><g class="g-xtitle" data-bb="60" transform="translate(0,-3)"><text class="xtitle" x="383" y="596" text-anchor="middle" style="font-family: 'Courier New', monospace; font-size: 22px; fill: rgb(127, 127, 127); opacity: 1; font-weight: normal; white-space: pre; visibility: visible;">nn</text></g><g class="g-ytitle" data-bb="61" transform="translate(-0.203125,0)"><text class="ytitle" transform="rotate(-90,26,310) translate(0, 0)" x="26" y="310" text-anchor="middle" style="font-family: 'Courier New', monospace; font-size: 22px; fill: rgb(127, 127, 127); opacity: 1; font-weight: normal; white-space: pre; visibility: visible;">[OVERALL] RunTime(ms)</text></g><g class="legend" pointer-events="all" transform="translate(698.12, 100)"><rect class="bg" shape-rendering="crispEdges" style="stroke: rgb(68, 68, 68); stroke-opacity: 1; fill: rgb(255, 255, 255); fill-opacity: 1; stroke-width: 0px;" width="90" height="63" x="0" y="0"/><g class="scrollbox" transform="translate(0, 0)" clip-path="url(#legend8ec3f7)"><g class="groups"><g class="traces" transform="translate(0, 18.200000000000003)" style="opacity: 1;"><g class="legendfill"/><g class="legendlines"/><g class="legendsymbols" style="opacity: 1;"><g class="legendpoints"><path class="legendbox" d="M6,6H-6V-6H6Z" transform="translate(20,0)" style="stroke-width: 2px; fill: rgb(31, 119, 180); fill-opacity: 0.5; stroke: rgb(31, 119, 180); stroke-opacity: 1;"/></g></g><text class="legendtext user-select-none" x="40" y="7.0200000000000005" style="text-anchor: start; font-family: 'Courier New', monospace; font-size: 18px; fill: rgb(127, 127, 127); fill-opacity: 1; white-space: pre; visibility: visible;" data-bb="68">eth</text><rect class="legendtoggle" pointer-events="all" style="cursor: pointer; fill: rgb(0, 0, 0); fill-opacity: 0;" width="129.390625" x="0" y="-13.200000000000001" height="26.400000000000002"/></g><g class="traces" transform="translate(0, 44.6)" style="opacity: 1;"><g class="legendfill"/><g class="legendlines"/><g class="legendsymbols" style="opacity: 1;"><g class="legendpoints"><path class="legendbox" d="M6,6H-6V-6H6Z" transform="translate(20,0)" style="stroke-width: 2px; fill: rgb(255, 127, 14); fill-opacity: 0.5; stroke: rgb(255, 127, 14); stroke-opacity: 1;"/></g></g><text class="legendtext user-select-none" x="40" y="7.0200000000000005" style="text-anchor: start; font-family: 'Courier New', monospace; font-size: 18px; fill: rgb(127, 127, 127); fill-opacity: 1; white-space: pre; visibility: visible;" data-bb="69">wlan</text><rect class="legendtoggle" pointer-events="all" width="129.390625" style="cursor: pointer; fill: rgb(0, 0, 0); fill-opacity: 0;" x="0" y="-13.200000000000001" height="26.400000000000002"/></g></g></g><rect class="scrollbar" rx="20" ry="2" width="0" height="0" style="fill: rgb(128, 139, 164); fill-opacity: 1;"/></g></g></svg>