<svg class="main-svg" xmlns="http://www.w3.org/2000/svg" xmlns:xlink="http://www.w3.org/1999/xlink" width="800" height="600"><rect x="0" y="0" width="800" height="600" style="fill: rgb(255, 255, 255); fill-opacity: 1;"/><defs id="defs-f68775"><g class="clips"><clipPath class="axesclip" id="clipf68775x"><rect x="80" y="0" width="606" height="600"/></clipPath><clipPath class="axesclip" id="clipf68775y"><rect x="0" y="100" width="800" height="420"/></clipPath><clipPath class="axesclip" id="clipf68775xy"><rect x="80" y="100" width="606" height="420"/></clipPath><clipPath class="plotclip" id="clipf68775xyplot"><rect width="606" height="420"/></clipPath></g></defs><g class="layer-below"><g class="imagelayer"/><g class="shapelayer"/></g><g class="subplot xy"><rect x="80" y="100" width="606" height="420" style="stroke-width: 0; fill: rgb(255, 255, 255); fill-opacity: 1;"/><g class="layer-subplot"><g class="shapelayer"/><g class="imagelayer"/></g><g transform="translate(80,100)"><path class="ygrid crisp" d="M0,0h606" transform="translate(0,376.62)" style="stroke: rgb(238, 238, 238); stroke-opacity: 1; stroke-width: 1px;"/><path class="ygrid crisp" d="M0,0h606" transform="translate(0,333.24)" style="stroke: rgb(238, 238, 238); stroke-opacity: 1; stroke-width: 1px;"/><path class="ygrid crisp" d="M0,0h606" transform="translate(0,289.86)" style="stroke: rgb(238, 238, 238); stroke-opacity: 1; stroke-width: 1px;"/><path class="ygrid crisp" d="M0,0h606" transform="translate(0,246.48)" style="stroke: rgb(238, 238, 238); stroke-opacity: 1; stroke-width: 1px;"/><path class="ygrid crisp" d="M0,0h606" transform="translate(0,203.1)" style="stroke: rgb(238, 238, 238); stroke-opacity: 1; stroke-width: 1px;"/><path class="ygrid crisp" d="M0,0h606" transform="translate(0,159.72)" style="stroke: rgb(238, 238, 238); stroke-opacity: 1; stroke-width: 1px;"/><path class="ygrid crisp" d="M0,0h606" transform="translate(0,116.34)" style="stroke: rgb(238, 238, 238); stroke-opacity: 1; stroke-width: 1px;"/><path class="ygrid crisp" d="M0,0h606" transform="translate(0,72.95)" style="stroke: rgb(238, 238, 238); stroke-opacity: 1; stroke-width: 1px;"/><path class="ygrid crisp" d="M0,0h606" transform="translate(0,29.57)" style="stroke: rgb(238, 238, 238); stroke-opacity: 1; stroke-width: 1px;"/></g><g/><g transform="translate(80,100)"><path class="yzl zl crisp" d="M0,0h606" transform="translate(0,420)" style="stroke: rgb(68, 68, 68); stroke-opacity: 1; stroke-width: 1px;"/></g><g/><g transform="translate(80, 100)" clip-path="url(#clipf68775xyplot)"><g class="imagelayer"/><g class="maplayer"/><g class="barlayer"/><g class="boxlayer"><g class="trace boxes" style="opacity: 1;"><path class="box" d="M25.75,380.29H75.24M25.75,380.82H75.24V379.74H25.75ZM50.5,380.82V382.47M50.5,379.74V362.94M38.13,382.47H62.87M38.13,362.94H62.87" style="stroke-width: 2px; stroke: rgb(31, 119, 180); stroke-opacity: 1; fill: rgb(31, 119, 180); fill-opacity: 0.5;"/><path class="box" d="M126.76,310.23H176.25M126.76,327.34H176.25V308.29H126.76ZM151.5,327.34V347.61M151.5,308.29V305.72M139.13,347.61H163.87M139.13,305.72H163.87" style="stroke-width: 2px; stroke: rgb(31, 119, 180); stroke-opacity: 1; fill: rgb(31, 119, 180); fill-opacity: 0.5;"/><path class="box" d="M227.76,336.13H277.25M227.76,338.7H277.25V335.11H227.76ZM252.5,338.7V345.73M252.5,335.11V331.44M240.13,345.73H264.87M240.13,331.44H264.87" style="stroke-width: 2px; stroke: rgb(31, 119, 180); stroke-opacity: 1; fill: rgb(31, 119, 180); fill-opacity: 0.5;"/><path class="box" d="M328.76,338.59H378.25M328.76,339.36H378.25V338.03H328.76ZM353.5,339.36V340.42M353.5,338.03V326.33M341.13,340.42H365.87M341.13,326.33H365.87" style="stroke-width: 2px; stroke: rgb(31, 119, 180); stroke-opacity: 1; fill: rgb(31, 119, 180); fill-opacity: 0.5;"/><path class="box" d="M429.76,335.9H479.25M429.76,336.98H479.25V334.9H429.76ZM454.5,336.98V338.73M454.5,334.9V311.04M442.13,338.73H466.87M442.13,311.04H466.87" style="stroke-width: 2px; stroke: rgb(31, 119, 180); stroke-opacity: 1; fill: rgb(31, 119, 180); fill-opacity: 0.5;"/><path class="box" d="M530.76,326.85H580.25M530.76,328.21H580.25V323.85H530.76ZM555.5,328.21V330M555.5,323.85V305.36M543.13,330H567.87M543.13,305.36H567.87" style="stroke-width: 2px; stroke: rgb(31, 119, 180); stroke-opacity: 1; fill: rgb(31, 119, 180); fill-opacity: 0.5;"/></g><g class="trace boxes" style="opacity: 1;"><path class="box" d="M25.75,337.12H75.24M25.75,347.85H75.24V327.95H25.75ZM50.5,347.85V355.73M50.5,327.95V295.98M38.13,355.73H62.87M38.13,295.98H62.87" style="stroke-width: 2px; stroke: rgb(255, 127, 14); stroke-opacity: 1; fill: rgb(255, 127, 14); fill-opacity: 0.5;"/><path class="box" d="M126.76,269.18H176.25M126.76,282.63H176.25V247.61H126.76ZM151.5,282.63V303.08M151.5,247.61V175.96M139.13,303.08H163.87M139.13,175.96H163.87" style="stroke-width: 2px; stroke: rgb(255, 127, 14); stroke-opacity: 1; fill: rgb(255, 127, 14); fill-opacity: 0.5;"/><path class="box" d="M227.76,310.23H277.25M227.76,311.94H277.25V308.42H227.76ZM252.5,311.94V318.53M252.5,308.42V290.51M240.13,318.53H264.87M240.13,290.51H264.87" style="stroke-width: 2px; stroke: rgb(255, 127, 14); stroke-opacity: 1; fill: rgb(255, 127, 14); fill-opacity: 0.5;"/><path class="box" d="M328.76,153.84H378.25M328.76,170.7H378.25V134.89H328.76ZM353.5,170.7V212.92M353.5,134.89V21M341.13,212.92H365.87M341.13,21H365.87" style="stroke-width: 2px; stroke: rgb(255, 127, 14); stroke-opacity: 1; fill: rgb(255, 127, 14); fill-opacity: 0.5;"/><path class="box" d="M429.76,261.13H479.25M429.76,263.92H479.25V257.71H429.76ZM454.5,263.92V269.04M454.5,257.71V172.8M442.13,269.04H466.87M442.13,172.8H466.87" style="stroke-width: 2px; stroke: rgb(255, 127, 14); stroke-opacity: 1; fill: rgb(255, 127, 14); fill-opacity: 0.5;"/><path class="box" d="M530.76,152.22H580.25M530.76,175.01H580.25V116.24H530.76ZM555.5,175.01V205.75M555.5,116.24V30.33M543.13,205.75H567.87M543.13,30.33H567.87" style="stroke-width: 2px; stroke: rgb(255, 127, 14); stroke-opacity: 1; fill: rgb(255, 127, 14); fill-opacity: 0.5;"/></g></g><g class="scatterlayer"/></g><g/><path class="crisp" transform="translate(80,100)" d="M-1,420.5h608" style="fill: none; stroke-width: 1px; stroke: rgb(0, 0, 0); stroke-opacity: 0;"/><path class="crisp" transform="translate(80,100)" d="M-0.5,-1v421" stroke-width="1px" style="fill: none; stroke: rgb(0, 0, 0); stroke-opacity: 0;"/><g/><g transform="translate(80,100)"><g class="xtick"><text text-anchor="middle" x="0" y="440" transform="translate(50.5,0)" style="font-family: 'Courier New', monospace; font-size: 18px; fill: rgb(127, 127, 127); fill-opacity: 1; visibility: visible; white-space: pre;" data-bb="62">1</text></g><g class="xtick"><text text-anchor="middle" x="0" y="440" transform="translate(151.5,0)" style="font-family: 'Courier New', monospace; font-size: 18px; fill: rgb(127, 127, 127); fill-opacity: 1; visibility: visible; white-space: pre;" data-bb="63">2</text></g><g class="xtick"><text text-anchor="middle" x="0" y="440" transform="translate(252.5,0)" style="font-family: 'Courier New', monospace; font-size: 18px; fill: rgb(127, 127, 127); fill-opacity: 1; visibility: visible; white-space: pre;" data-bb="64">3</text></g><g class="xtick"><text text-anchor="middle" x="0" y="440" transform="translate(353.5,0)" style="font-family: 'Courier New', monospace; font-size: 18px; fill: rgb(127, 127, 127); fill-opacity: 1; visibility: visible; white-space: pre;" data-bb="65">4</text></g><g class="xtick"><text text-anchor="middle" x="0" y="440" transform="translate(454.5,0)" style="font-family: 'Courier New', monospace; font-size: 18px; fill: rgb(127, 127, 127); fill-opacity: 1; visibility: visible; white-space: pre;" data-bb="66">5</text></g><g class="xtick"><text text-anchor="middle" x="0" y="440" transform="translate(555.5,0)" style="font-family: 'Courier New', monospace; font-size: 18px; fill: rgb(127, 127, 127); fill-opacity: 1; visibility: visible; white-space: pre;" data-bb="67">6</text></g></g><g transform="translate(80,100)"><g class="ytick" data-bb="70"><text text-anchor="end" x="-2" y="9" transform="translate(0,420)" style="font-family: 'Courier New', monospace; font-size: 18px; fill: rgb(127, 127, 127); fill-opacity: 1; visibility: visible; white-space: pre;">0</text></g><g class="ytick" data-bb="71"><text text-anchor="end" x="-2" y="9" transform="translate(0,376.62)" style="font-family: 'Courier New', monospace; font-size: 18px; fill: rgb(127, 127, 127); fill-opacity: 1; visibility: visible; white-space: pre;">50k</text></g><g class="ytick" data-bb="72"><text text-anchor="end" x="-2" y="9" transform="translate(0,333.24)" style="font-family: 'Courier New', monospace; font-size: 18px; fill: rgb(127, 127, 127); fill-opacity: 1; visibility: visible; white-space: pre;">100k</text></g><g class="ytick" data-bb="73"><text text-anchor="end" x="-2" y="9" transform="translate(0,289.86)" style="font-family: 'Courier New', monospace; font-size: 18px; fill: rgb(127, 127, 127); fill-opacity: 1; visibility: visible; white-space: pre;">150k</text></g><g class="ytick" data-bb="74"><text text-anchor="end" x="-2" y="9" transform="translate(0,246.48)" style="font-family: 'Courier New', monospace; font-size: 18px; fill: rgb(127, 127, 127); fill-opacity: 1; visibility: visible; white-space: pre;">200k</text></g><g class="ytick" data-bb="75"><text text-anchor="end" x="-2" y="9" transform="translate(0,203.1)" style="font-family: 'Courier New', monospace; font-size: 18px; fill: rgb(127, 127, 127); fill-opacity: 1; visibility: visible; white-space: pre;">250k</text></g><g class="ytick" data-bb="76"><text text-anchor="end" x="-2" y="9" transform="translate(0,159.72)" style="font-family: 'Courier New', monospace; font-size: 18px; fill: rgb(127, 127, 127); fill-opacity: 1; visibility: visible; white-space: pre;">300k</text></g><g class="ytick" data-bb="77"><text text-anchor="end" x="-2" y="9" transform="translate(0,116.34)" style="font-family: 'Courier New', monospace; font-size: 18px; fill: rgb(127, 127, 127); fill-opacity: 1; visibility: visible; white-space: pre;">350k</text></g><g class="ytick" data-bb="78"><text text-anchor="end" x="-2" y="9" transform="translate(0,72.95)" style="font-family: 'Courier New', monospace; font-size: 18px; fill: rgb(127, 127, 127); fill-opacity: 1; visibility: visible; white-space: pre;">400k</text></g><g class="ytick" data-bb="79"><text text-anchor="end" x="-2" y="9" transform="translate(0,29.57)" style="font-family: 'Courier New', monospace; font-size: 18px; fill: rgb(127, 127, 127); fill-opacity: 1; visibility: visible; white-space: pre;">450k</text></g></g><g/></g><g class="ternarylayer"/><g class="layer-above"><g class="imagelayer"/><g class="shapelayer"/></g><g class="pielayer"/><g class="glimages"/><g class="geoimages"/><text class="js-plot-link-container" y="591" text-anchor="end" x="793" style="font-family: 'Open Sans', Arial, sans-serif; font-size: 12px; fill: rgb(68, 68, 68); pointer-events: all;"><tspan class="js-link-to-tool"/><tspan class="js-link-spacer"/><tspan class="js-sourcelinks"/></text><defs id="topdefs-f68775"><clipPath id="legendf68775"><rect width="90" height="63" x="0" y="0"/></clipPath></defs><g class="infolayer"><g class="g-gtitle"><text class="gtitle" x="400" y="50" text-anchor="middle" style="font-family: 'Courier New', monospace; font-size: 25px; fill: rgb(127, 127, 127); opacity: 1; font-weight: normal; white-space: pre; visibility: visible;">Execution Time, Workload A</text></g><g class="g-xtitle" data-bb="68" transform="translate(0,-3)"><text class="xtitle" x="383" y="596" text-anchor="middle" style="font-family: 'Courier New', monospace; font-size: 22px; fill: rgb(127, 127, 127); opacity: 1; font-weight: normal; white-space: pre; visibility: visible;">nn</text></g><g class="g-ytitle" data-bb="69" transform="translate(-1.203125,0)"><text class="ytitle" transform="rotate(-90,26,310) translate(0, 0)" x="26" y="310" text-anchor="middle" style="font-family: 'Courier New', monospace; font-size: 22px; fill: rgb(127, 127, 127); opacity: 1; font-weight: normal; white-space: pre; visibility: visible;">[OVERALL] RunTime(ms)</text></g><g class="legend" pointer-events="all" transform="translate(698.12, 100)"><rect class="bg" shape-rendering="crispEdges" style="stroke: rgb(68, 68, 68); stroke-opacity: 1; fill: rgb(255, 255, 255); fill-opacity: 1; stroke-width: 0px;" width="90" height="63" x="0" y="0"/><g class="scrollbox" transform="translate(0, 0)" clip-path="url(#legendf68775)"><g class="groups"><g class="traces" transform="translate(0, 18.200000000000003)" style="opacity: 1;"><g class="legendfill"/><g class="legendlines"/><g class="legendsymbols" style="opacity: 1;"><g class="legendpoints"><path class="legendbox" d="M6,6H-6V-6H6Z" transform="translate(20,0)" style="stroke-width: 2px; fill: rgb(31, 119, 180); fill-opacity: 0.5; stroke: rgb(31, 119, 180); stroke-opacity: 1;"/></g></g><text class="legendtext user-select-none" x="40" y="7.0200000000000005" style="text-anchor: start; font-family: 'Courier New', monospace; font-size: 18px; fill: rgb(127, 127, 127); fill-opacity: 1; white-space: pre; visibility: visible;" data-bb="80">eth</text><rect class="legendtoggle" pointer-events="all" style="cursor: pointer; fill: rgb(0, 0, 0); fill-opacity: 0;" width="129.390625" x="0" y="-13.200000000000001" height="26.400000000000002"/></g><g class="traces" transform="translate(0, 44.6)" style="opacity: 1;"><g class="legendfill"/><g class="legendlines"/><g class="legendsymbols" style="opacity: 1;"><g class="legendpoints"><path class="legendbox" d="M6,6H-6V-6H6Z" transform="translate(20,0)" style="stroke-width: 2px; fill: rgb(255, 127, 14); fill-opacity: 0.5; stroke: rgb(255, 127, 14); stroke-opacity: 1;"/></g></g><text class="legendtext user-select-none" x="40" y="7.0200000000000005" style="text-anchor: start; font-family: 'Courier New', monospace; font-size: 18px; fill: rgb(127, 127, 127); fill-opacity: 1; white-space: pre; visibility: visible;" data-bb="81">wlan</text><rect class="legendtoggle" pointer-events="all" width="129.390625" style="cursor: pointer; fill: rgb(0, 0, 0); fill-opacity: 0;" x="0" y="-13.200000000000001" height="26.400000000000002"/></g></g></g><rect class="scrollbar" rx="20" ry="2" width="0" height="0" style="fill: rgb(128, 139, 164); fill-opacity: 1;"/></g></g></svg>