<svg class="main-svg" xmlns="http://www.w3.org/2000/svg" xmlns:xlink="http://www.w3.org/1999/xlink" width="800" height="600"><rect x="0" y="0" width="800" height="600" style="fill: rgb(255, 255, 255); fill-opacity: 1;"/><defs id="defs-3d96cc"><g class="clips"><clipPath class="axesclip" id="clip3d96ccx"><rect x="80" y="0" width="616" height="600"/></clipPath><clipPath class="axesclip" id="clip3d96ccy"><rect x="0" y="100" width="800" height="420"/></clipPath><clipPath class="axesclip" id="clip3d96ccxy"><rect x="80" y="100" width="616" height="420"/></clipPath><clipPath class="plotclip" id="clip3d96ccxyplot"><rect width="616" height="420"/></clipPath></g></defs><g class="layer-below"><g class="imagelayer"/><g class="shapelayer"/></g><g class="subplot xy"><rect x="80" y="100" width="616" height="420" style="stroke-width: 0; fill: rgb(255, 255, 255); fill-opacity: 1;"/><g class="layer-subplot"><g class="shapelayer"/><g class="imagelayer"/></g><g transform="translate(80,100)"><path class="xgrid crisp" d="M0,0v420" transform="translate(84.97,0)" style="stroke: rgb(238, 238, 238); stroke-opacity: 1; stroke-width: 1px;"/><path class="xgrid crisp" d="M0,0v420" transform="translate(191.17,0)" style="stroke: rgb(238, 238, 238); stroke-opacity: 1; stroke-width: 1px;"/><path class="xgrid crisp" d="M0,0v420" transform="translate(297.38,0)" style="stroke: rgb(238, 238, 238); stroke-opacity: 1; stroke-width: 1px;"/><path class="xgrid crisp" d="M0,0v420" transform="translate(403.59,0)" style="stroke: rgb(238, 238, 238); stroke-opacity: 1; stroke-width: 1px;"/><path class="xgrid crisp" d="M0,0v420" transform="translate(509.79,0)" style="stroke: rgb(238, 238, 238); stroke-opacity: 1; stroke-width: 1px;"/><path class="ygrid crisp" d="M0,0h616" transform="translate(0,407.29)" style="stroke: rgb(238, 238, 238); stroke-opacity: 1; stroke-width: 1px;"/><path class="ygrid crisp" d="M0,0h616" transform="translate(0,361.8)" style="stroke: rgb(238, 238, 238); stroke-opacity: 1; stroke-width: 1px;"/><path class="ygrid crisp" d="M0,0h616" transform="translate(0,316.3)" style="stroke: rgb(238, 238, 238); stroke-opacity: 1; stroke-width: 1px;"/><path class="ygrid crisp" d="M0,0h616" transform="translate(0,270.81)" style="stroke: rgb(238, 238, 238); stroke-opacity: 1; stroke-width: 1px;"/><path class="ygrid crisp" d="M0,0h616" transform="translate(0,225.32)" style="stroke: rgb(238, 238, 238); stroke-opacity: 1; stroke-width: 1px;"/><path class="ygrid crisp" d="M0,0h616" transform="translate(0,179.82)" style="stroke: rgb(238, 238, 238); stroke-opacity: 1; stroke-width: 1px;"/><path class="ygrid crisp" d="M0,0h616" transform="translate(0,134.33)" style="stroke: rgb(238, 238, 238); stroke-opacity: 1; stroke-width: 1px;"/><path class="ygrid crisp" d="M0,0h616" transform="translate(0,88.84)" style="stroke: rgb(238, 238, 238); stroke-opacity: 1; stroke-width: 1px;"/><path class="ygrid crisp" d="M0,0h616" transform="translate(0,43.35)" style="stroke: rgb(238, 238, 238); stroke-opacity: 1; stroke-width: 1px;"/></g><g/><g transform="translate(80,100)"/><g/><g transform="translate(80, 100)" clip-path="url(#clip3d96ccxyplot)"><g class="imagelayer"/><g class="maplayer"/><g class="barlayer"/><g class="boxlayer"/><g class="scatterlayer"><g class="trace scatter" style="stroke-miterlimit: 2; opacity: 1;"><path class="js-line" d="M0,21L21.24,384.97L42.48,392.29L63.72,395.15L84.97,343.9L106.21,393.3L127.45,392.29L169.93,395.25L191.17,395.68L233.66,394.52L254.9,396.22L276.14,393.7L297.38,393.53L361.1,395.73L382.34,393.71L424.83,393.97L446.07,395.31L467.31,390.08L488.55,392.59L531.03,394.66L552.28,393.5L594.76,394.91L616,394.81" style="vector-effect: non-scaling-stroke; fill: none; stroke: rgb(31, 119, 180); stroke-opacity: 1; stroke-width: 2px;"/></g><g class="trace scatter" style="stroke-miterlimit: 2; opacity: 1;"><path class="js-line" d="M0,248.86L21.24,390.4L42.48,394.07L63.72,394.91L84.97,393.78L127.45,394.61L148.69,393.82L169.93,395.6L191.17,395.07L254.9,397.1L276.14,395.05L297.38,395.5L318.62,395.19L339.86,395.18L361.1,396.05L382.34,395.3L403.59,395.94L446.07,395.6L467.31,396.31L488.55,397.06L509.79,396.76L552.28,397.63L573.52,395.21L616,396.07" style="vector-effect: non-scaling-stroke; fill: none; stroke: rgb(255, 127, 14); stroke-opacity: 1; stroke-width: 2px;"/></g><g class="trace scatter" style="stroke-miterlimit: 2; opacity: 1;"><path class="js-line" d="M0,357.28L21.24,391.04L42.48,394.91L63.72,394.28L84.97,395.1L106.21,393.31L127.45,394.67L148.69,391.52L169.93,394.81L233.66,393.16L254.9,395.47L276.14,395.55L297.38,396.46L318.62,397.24L339.86,397.15L424.83,397.94L446.07,398.31L488.55,397.5L509.79,399L552.28,394.2L573.52,395.62L594.76,394.76L616,395.51" style="vector-effect: non-scaling-stroke; fill: none; stroke: rgb(44, 160, 44); stroke-opacity: 1; stroke-width: 2px;"/></g></g></g><g/><path class="crisp" transform="translate(80,100)" d="M-1,420.5h618" style="fill: none; stroke-width: 1px; stroke: rgb(0, 0, 0); stroke-opacity: 0;"/><path class="crisp" transform="translate(80,100)" d="M-0.5,-1v421" stroke-width="1px" style="fill: none; stroke: rgb(0, 0, 0); stroke-opacity: 0;"/><g/><g transform="translate(80,100)"><g class="xtick"><text text-anchor="middle" x="0" y="440" transform="translate(84.97,0)" style="font-family: 'Courier New', monospace; font-size: 18px; fill: rgb(127, 127, 127); fill-opacity: 1; visibility: visible; white-space: pre;" data-bb="65">5</text></g><g class="xtick"><text text-anchor="middle" x="0" y="440" transform="translate(191.17,0)" style="font-family: 'Courier New', monospace; font-size: 18px; fill: rgb(127, 127, 127); fill-opacity: 1; visibility: visible; white-space: pre;" data-bb="66">10</text></g><g class="xtick"><text text-anchor="middle" x="0" y="440" transform="translate(297.38,0)" style="font-family: 'Courier New', monospace; font-size: 18px; fill: rgb(127, 127, 127); fill-opacity: 1; visibility: visible; white-space: pre;" data-bb="67">15</text></g><g class="xtick"><text text-anchor="middle" x="0" y="440" transform="translate(403.59,0)" style="font-family: 'Courier New', monospace; font-size: 18px; fill: rgb(127, 127, 127); fill-opacity: 1; visibility: visible; white-space: pre;" data-bb="68">20</text></g><g class="xtick"><text text-anchor="middle" x="0" y="440" transform="translate(509.79,0)" style="font-family: 'Courier New', monospace; font-size: 18px; fill: rgb(127, 127, 127); fill-opacity: 1; visibility: visible; white-space: pre;" data-bb="69">25</text></g><g class="xtick"><text text-anchor="middle" x="0" y="440" transform="translate(616,0)" style="font-family: 'Courier New', monospace; font-size: 18px; fill: rgb(127, 127, 127); fill-opacity: 1; visibility: visible; white-space: pre;" data-bb="70">30</text></g></g><g transform="translate(80,100)"><g class="ytick" data-bb="73"><text text-anchor="end" x="-2" y="9" transform="translate(0,407.29)" style="font-family: 'Courier New', monospace; font-size: 18px; fill: rgb(127, 127, 127); fill-opacity: 1; visibility: visible; white-space: pre;">5k</text></g><g class="ytick" data-bb="74"><text text-anchor="end" x="-2" y="9" transform="translate(0,361.8)" style="font-family: 'Courier New', monospace; font-size: 18px; fill: rgb(127, 127, 127); fill-opacity: 1; visibility: visible; white-space: pre;">10k</text></g><g class="ytick" data-bb="75"><text text-anchor="end" x="-2" y="9" transform="translate(0,316.3)" style="font-family: 'Courier New', monospace; font-size: 18px; fill: rgb(127, 127, 127); fill-opacity: 1; visibility: visible; white-space: pre;">15k</text></g><g class="ytick" data-bb="76"><text text-anchor="end" x="-2" y="9" transform="translate(0,270.81)" style="font-family: 'Courier New', monospace; font-size: 18px; fill: rgb(127, 127, 127); fill-opacity: 1; visibility: visible; white-space: pre;">20k</text></g><g class="ytick" data-bb="77"><text text-anchor="end" x="-2" y="9" transform="translate(0,225.32)" style="font-family: 'Courier New', monospace; font-size: 18px; fill: rgb(127, 127, 127); fill-opacity: 1; visibility: visible; white-space: pre;">25k</text></g><g class="ytick" data-bb="78"><text text-anchor="end" x="-2" y="9" transform="translate(0,179.82)" style="font-family: 'Courier New', monospace; font-size: 18px; fill: rgb(127, 127, 127); fill-opacity: 1; visibility: visible; white-space: pre;">30k</text></g><g class="ytick" data-bb="79"><text text-anchor="end" x="-2" y="9" transform="translate(0,134.33)" style="font-family: 'Courier New', monospace; font-size: 18px; fill: rgb(127, 127, 127); fill-opacity: 1; visibility: visible; white-space: pre;">35k</text></g><g class="ytick" data-bb="80"><text text-anchor="end" x="-2" y="9" transform="translate(0,88.84)" style="font-family: 'Courier New', monospace; font-size: 18px; fill: rgb(127, 127, 127); fill-opacity: 1; visibility: visible; white-space: pre;">40k</text></g><g class="ytick" data-bb="81"><text text-anchor="end" x="-2" y="9" transform="translate(0,43.35)" style="font-family: 'Courier New', monospace; font-size: 18px; fill: rgb(127, 127, 127); fill-opacity: 1; visibility: visible; white-space: pre;">45k</text></g></g><g/></g><g class="ternarylayer"/><g class="layer-above"><g class="imagelayer"/><g class="shapelayer"/></g><g class="pielayer"/><g class="glimages"/><g class="geoimages"/><text class="js-plot-link-container" y="591" text-anchor="end" x="793" style="font-family: 'Open Sans', Arial, sans-serif; font-size: 12px; fill: rgb(68, 68, 68); pointer-events: all;"><tspan class="js-link-to-tool"/><tspan class="js-link-spacer"/><tspan class="js-sourcelinks"/></text><defs id="topdefs-3d96cc"><clipPath id="legend3d96cc"><rect width="80" height="90" x="0" y="0"/></clipPath></defs><g class="infolayer"><g class="g-gtitle"><text class="gtitle" x="400" y="50" text-anchor="middle" style="font-family: 'Courier New', monospace; font-size: 25px; fill: rgb(127, 127, 127); opacity: 1; font-weight: normal; white-space: pre; visibility: visible;">Execution Time, Workload A</text></g><g class="g-xtitle" data-bb="71" transform="translate(0,-3)"><text class="xtitle" x="388" y="596" text-anchor="middle" style="font-family: 'Courier New', monospace; font-size: 22px; fill: rgb(127, 127, 127); opacity: 1; font-weight: normal; white-space: pre; visibility: visible;">t</text></g><g class="g-ytitle" data-bb="72"><text class="ytitle" transform="rotate(-90,26,310) translate(0, 0)" x="26" y="310" text-anchor="middle" style="font-family: 'Courier New', monospace; font-size: 22px; fill: rgb(127, 127, 127); opacity: 1; font-weight: normal; white-space: pre; visibility: visible;">[OVERALL] RunTime(ms)</text></g><g class="legend" pointer-events="all" transform="translate(708.32, 100)"><rect class="bg" shape-rendering="crispEdges" style="stroke: rgb(68, 68, 68); stroke-opacity: 1; fill: rgb(255, 255, 255); fill-opacity: 1; stroke-width: 0px;" width="80" height="90" x="0" y="0"/><g class="scrollbox" transform="translate(0, 0)" clip-path="url(#legend3d96cc)"><g class="groups"><g class="traces" transform="translate(0, 18.200000000000003)" style="opacity: 1;"><g class="legendfill"/><g class="legendlines"><path class="js-line" d="M5,0h30" style="fill: none; stroke: rgb(31, 119, 180); stroke-opacity: 1; stroke-width: 2px;"/></g><g class="legendsymbols" style="opacity: 1;"><g class="legendpoints"/></g><text class="legendtext user-select-none" x="40" y="7.0200000000000005" style="text-anchor: start; font-family: 'Courier New', monospace; font-size: 18px; fill: rgb(127, 127, 127); fill-opacity: 1; white-space: pre; visibility: visible;" data-bb="82">1GB</text><rect class="legendtoggle" pointer-events="all" style="cursor: pointer; fill: rgb(0, 0, 0); fill-opacity: 0;" width="119.59375" x="0" y="-13.200000000000001" height="26.400000000000002"/></g><g class="traces" transform="translate(0, 44.6)" style="opacity: 1;"><g class="legendfill"/><g class="legendlines"><path class="js-line" d="M5,0h30" style="fill: none; stroke: rgb(255, 127, 14); stroke-opacity: 1; stroke-width: 2px;"/></g><g class="legendsymbols" style="opacity: 1;"><g class="legendpoints"/></g><text class="legendtext user-select-none" x="40" y="7.0200000000000005" style="text-anchor: start; font-family: 'Courier New', monospace; font-size: 18px; fill: rgb(127, 127, 127); fill-opacity: 1; white-space: pre; visibility: visible;" data-bb="83">2GB</text><rect class="legendtoggle" pointer-events="all" style="cursor: pointer; fill: rgb(0, 0, 0); fill-opacity: 0;" width="119.59375" x="0" y="-13.200000000000001" height="26.400000000000002"/></g><g class="traces" transform="translate(0, 71)" style="opacity: 1;"><g class="legendfill"/><g class="legendlines"><path class="js-line" d="M5,0h30" style="fill: none; stroke: rgb(44, 160, 44); stroke-opacity: 1; stroke-width: 2px;"/></g><g class="legendsymbols" style="opacity: 1;"><g class="legendpoints"/></g><text class="legendtext user-select-none" x="40" y="7.0200000000000005" style="text-anchor: start; font-family: 'Courier New', monospace; font-size: 18px; fill: rgb(127, 127, 127); fill-opacity: 1; white-space: pre; visibility: visible;" data-bb="84">4GB</text><rect class="legendtoggle" pointer-events="all" width="119.59375" style="cursor: pointer; fill: rgb(0, 0, 0); fill-opacity: 0;" x="0" y="-13.200000000000001" height="26.400000000000002"/></g></g></g><rect class="scrollbar" rx="20" ry="2" width="0" height="0" style="fill: rgb(128, 139, 164); fill-opacity: 1;"/></g></g></svg>