<svg class="main-svg" xmlns="http://www.w3.org/2000/svg" xmlns:xlink="http://www.w3.org/1999/xlink" width="800" height="600"><rect x="0" y="0" width="800" height="600" style="fill: rgb(255, 255, 255); fill-opacity: 1;"/><defs id="defs-027506"><g class="clips"><clipPath class="axesclip" id="clip027506x"><rect x="80" y="0" width="640" height="600"/></clipPath><clipPath class="axesclip" id="clip027506y"><rect x="0" y="100" width="800" height="420"/></clipPath><clipPath class="axesclip" id="clip027506xy"><rect x="80" y="100" width="640" height="420"/></clipPath><clipPath class="plotclip" id="clip027506xyplot"><rect width="640" height="420"/></clipPath></g></defs><g class="layer-below"><g class="imagelayer"/><g class="shapelayer"/></g><g class="subplot xy"><rect x="80" y="100" width="640" height="420" style="stroke-width: 0; fill: rgb(255, 255, 255); fill-opacity: 1;"/><g class="layer-subplot"><g class="shapelayer"/><g class="imagelayer"/></g><g transform="translate(80,100)"><path class="ygrid crisp" d="M0,0h640" transform="translate(0,343.77)" style="stroke: rgb(238, 238, 238); stroke-opacity: 1; stroke-width: 1px;"/><path class="ygrid crisp" d="M0,0h640" transform="translate(0,267.55)" style="stroke: rgb(238, 238, 238); stroke-opacity: 1; stroke-width: 1px;"/><path class="ygrid crisp" d="M0,0h640" transform="translate(0,191.32)" style="stroke: rgb(238, 238, 238); stroke-opacity: 1; stroke-width: 1px;"/><path class="ygrid crisp" d="M0,0h640" transform="translate(0,115.1)" style="stroke: rgb(238, 238, 238); stroke-opacity: 1; stroke-width: 1px;"/><path class="ygrid crisp" d="M0,0h640" transform="translate(0,38.87)" style="stroke: rgb(238, 238, 238); stroke-opacity: 1; stroke-width: 1px;"/></g><g/><g transform="translate(80,100)"><path class="yzl zl crisp" d="M0,0h640" transform="translate(0,420)" style="stroke: rgb(68, 68, 68); stroke-opacity: 1; stroke-width: 1px;"/></g><g/><g transform="translate(80, 100)" clip-path="url(#clip027506xyplot)"><g class="imagelayer"/><g class="maplayer"/><g class="barlayer"/><g class="boxlayer"><g class="trace boxes" style="opacity: 1;"><path class="box" d="M27.2,320.23H79.47M27.2,322.09H79.47V318.33H27.2ZM53.33,322.09V324.57M53.33,318.33V316.89M40.27,324.57H66.4M40.27,316.89H66.4" style="stroke-width: 2px; stroke: rgb(31, 119, 180); stroke-opacity: 1; fill: rgb(31, 119, 180); fill-opacity: 0.5;"/><path class="box" d="M133.87,236.54H186.13M133.87,243.64H186.13V228.56H133.87ZM160,243.64V251.53M160,228.56V219.99M146.93,251.53H173.07M146.93,219.99H173.07" style="stroke-width: 2px; stroke: rgb(31, 119, 180); stroke-opacity: 1; fill: rgb(31, 119, 180); fill-opacity: 0.5;"/><path class="box" d="M240.53,221.62H292.8M240.53,229.23H292.8V217.58H240.53ZM266.67,229.23V237.27M266.67,217.58V204.21M253.6,237.27H279.73M253.6,204.21H279.73" style="stroke-width: 2px; stroke: rgb(31, 119, 180); stroke-opacity: 1; fill: rgb(31, 119, 180); fill-opacity: 0.5;"/><path class="box" d="M347.2,131.73H399.47M347.2,142.7H399.47V105.6H347.2ZM373.33,142.7V161.44M373.33,105.6V50.28M360.27,161.44H386.4M360.27,50.28H386.4" style="stroke-width: 2px; stroke: rgb(31, 119, 180); stroke-opacity: 1; fill: rgb(31, 119, 180); fill-opacity: 0.5;"/><path class="box" d="M453.87,190.88H506.13M453.87,199.41H506.13V184.79H453.87ZM480,199.41V211.45M480,184.79V174.99M466.93,211.45H493.07M466.93,174.99H493.07" style="stroke-width: 2px; stroke: rgb(31, 119, 180); stroke-opacity: 1; fill: rgb(31, 119, 180); fill-opacity: 0.5;"/><path class="box" d="M560.53,149.09H612.8M560.53,419.96H612.8V112.43H560.53ZM586.67,419.96V419.96M586.67,112.43V69.12M573.6,419.96H599.73M573.6,69.12H599.73" style="stroke-width: 2px; stroke: rgb(31, 119, 180); stroke-opacity: 1; fill: rgb(31, 119, 180); fill-opacity: 0.5;"/><g class="points"><path transform="translate(53.33,311.92)" d="M3,0A3,3 0 1,1 0,-3A3,3 0 0,1 3,0Z" style="opacity: 1; stroke-width: 0px; fill: rgb(31, 119, 180); fill-opacity: 1;"/><path transform="translate(53.33,311.67)" d="M3,0A3,3 0 1,1 0,-3A3,3 0 0,1 3,0Z" style="opacity: 1; stroke-width: 0px; fill: rgb(31, 119, 180); fill-opacity: 1;"/><path transform="translate(53.33,309.53)" d="M3,0A3,3 0 1,1 0,-3A3,3 0 0,1 3,0Z" style="opacity: 1; stroke-width: 0px; fill: rgb(31, 119, 180); fill-opacity: 1;"/></g><g class="points"><path transform="translate(160,138.15)" d="M3,0A3,3 0 1,1 0,-3A3,3 0 0,1 3,0Z" style="opacity: 1; stroke-width: 0px; fill: rgb(31, 119, 180); fill-opacity: 1;"/><path transform="translate(160,130.08)" d="M3,0A3,3 0 1,1 0,-3A3,3 0 0,1 3,0Z" style="opacity: 1; stroke-width: 0px; fill: rgb(31, 119, 180); fill-opacity: 1;"/></g><g class="points"><path transform="translate(266.67,197.71)" d="M3,0A3,3 0 1,1 0,-3A3,3 0 0,1 3,0Z" style="opacity: 1; stroke-width: 0px; fill: rgb(31, 119, 180); fill-opacity: 1;"/></g><g class="points"><path transform="translate(373.33,46.97)" d="M3,0A3,3 0 1,1 0,-3A3,3 0 0,1 3,0Z" style="opacity: 1; stroke-width: 0px; fill: rgb(31, 119, 180); fill-opacity: 1;"/><path transform="translate(373.33,45.61)" d="M3,0A3,3 0 1,1 0,-3A3,3 0 0,1 3,0Z" style="opacity: 1; stroke-width: 0px; fill: rgb(31, 119, 180); fill-opacity: 1;"/><path transform="translate(373.33,25.16)" d="M3,0A3,3 0 1,1 0,-3A3,3 0 0,1 3,0Z" style="opacity: 1; stroke-width: 0px; fill: rgb(31, 119, 180); fill-opacity: 1;"/><path transform="translate(373.33,21)" d="M3,0A3,3 0 1,1 0,-3A3,3 0 0,1 3,0Z" style="opacity: 1; stroke-width: 0px; fill: rgb(31, 119, 180); fill-opacity: 1;"/></g><g class="points"><path transform="translate(480,145.64)" d="M3,0A3,3 0 1,1 0,-3A3,3 0 0,1 3,0Z" style="opacity: 1; stroke-width: 0px; fill: rgb(31, 119, 180); fill-opacity: 1;"/></g><g class="points"/></g></g><g class="scatterlayer"/></g><g/><path class="crisp" transform="translate(80,100)" d="M-1,420.5h642" style="fill: none; stroke-width: 1px; stroke: rgb(0, 0, 0); stroke-opacity: 0;"/><path class="crisp" transform="translate(80,100)" d="M-0.5,-1v421" stroke-width="1px" style="fill: none; stroke: rgb(0, 0, 0); stroke-opacity: 0;"/><g/><g transform="translate(80,100)"><g class="xtick"><text text-anchor="middle" x="0" y="440" transform="translate(53.33,0)" style="font-family: 'Courier New', monospace; font-size: 18px; fill: rgb(127, 127, 127); fill-opacity: 1; visibility: visible; white-space: pre;" data-bb="44">1</text></g><g class="xtick"><text text-anchor="middle" x="0" y="440" transform="translate(160,0)" style="font-family: 'Courier New', monospace; font-size: 18px; fill: rgb(127, 127, 127); fill-opacity: 1; visibility: visible; white-space: pre;" data-bb="45">2</text></g><g class="xtick"><text text-anchor="middle" x="0" y="440" transform="translate(266.67,0)" style="font-family: 'Courier New', monospace; font-size: 18px; fill: rgb(127, 127, 127); fill-opacity: 1; visibility: visible; white-space: pre;" data-bb="46">3</text></g><g class="xtick"><text text-anchor="middle" x="0" y="440" transform="translate(373.33,0)" style="font-family: 'Courier New', monospace; font-size: 18px; fill: rgb(127, 127, 127); fill-opacity: 1; visibility: visible; white-space: pre;" data-bb="47">4</text></g><g class="xtick"><text text-anchor="middle" x="0" y="440" transform="translate(480,0)" style="font-family: 'Courier New', monospace; font-size: 18px; fill: rgb(127, 127, 127); fill-opacity: 1; visibility: visible; white-space: pre;" data-bb="48">5</text></g><g class="xtick"><text text-anchor="middle" x="0" y="440" transform="translate(586.67,0)" style="font-family: 'Courier New', monospace; font-size: 18px; fill: rgb(127, 127, 127); fill-opacity: 1; visibility: visible; white-space: pre;" data-bb="49">6</text></g></g><g transform="translate(80,100)"><g class="ytick" data-bb="52"><text text-anchor="end" x="-2" y="9" transform="translate(0,420)" style="font-family: 'Courier New', monospace; font-size: 18px; fill: rgb(127, 127, 127); fill-opacity: 1; visibility: visible; white-space: pre;">0</text></g><g class="ytick" data-bb="53"><text text-anchor="end" x="-2" y="9" transform="translate(0,343.77)" style="font-family: 'Courier New', monospace; font-size: 18px; fill: rgb(127, 127, 127); fill-opacity: 1; visibility: visible; white-space: pre;">0.5M</text></g><g class="ytick" data-bb="54"><text text-anchor="end" x="-2" y="9" transform="translate(0,267.55)" style="font-family: 'Courier New', monospace; font-size: 18px; fill: rgb(127, 127, 127); fill-opacity: 1; visibility: visible; white-space: pre;">1M</text></g><g class="ytick" data-bb="55"><text text-anchor="end" x="-2" y="9" transform="translate(0,191.32)" style="font-family: 'Courier New', monospace; font-size: 18px; fill: rgb(127, 127, 127); fill-opacity: 1; visibility: visible; white-space: pre;">1.5M</text></g><g class="ytick" data-bb="56"><text text-anchor="end" x="-2" y="9" transform="translate(0,115.1)" style="font-family: 'Courier New', monospace; font-size: 18px; fill: rgb(127, 127, 127); fill-opacity: 1; visibility: visible; white-space: pre;">2M</text></g><g class="ytick" data-bb="57"><text text-anchor="end" x="-2" y="9" transform="translate(0,38.87)" style="font-family: 'Courier New', monospace; font-size: 18px; fill: rgb(127, 127, 127); fill-opacity: 1; visibility: visible; white-space: pre;">2.5M</text></g></g><g/></g><g class="ternarylayer"/><g class="layer-above"><g class="imagelayer"/><g class="shapelayer"/></g><g class="pielayer"/><g class="glimages"/><g class="geoimages"/><text class="js-plot-link-container" y="591" text-anchor="end" x="793" style="font-family: 'Open Sans', Arial, sans-serif; font-size: 12px; fill: rgb(68, 68, 68); pointer-events: all;"><tspan class="js-link-to-tool"/><tspan class="js-link-spacer"/><tspan class="js-sourcelinks"/></text><g class="infolayer"><g class="g-gtitle"><text class="gtitle" x="400" y="50" text-anchor="middle" style="font-family: 'Courier New', monospace; font-size: 25px; fill: rgb(127, 127, 127); opacity: 1; font-weight: normal; white-space: pre; visibility: visible;">Execution Time, Workload e</text></g><g class="g-xtitle" data-bb="50" transform="translate(0,-3)"><text class="xtitle" x="400" y="596" text-anchor="middle" style="font-family: 'Courier New', monospace; font-size: 22px; fill: rgb(127, 127, 127); opacity: 1; font-weight: normal; white-space: pre; visibility: visible;">nn</text></g><g class="g-ytitle" data-bb="51" transform="translate(-0.203125,0)"><text class="ytitle" transform="rotate(-90,26,310) translate(0, 0)" x="26" y="310" text-anchor="middle" style="font-family: 'Courier New', monospace; font-size: 22px; fill: rgb(127, 127, 127); opacity: 1; font-weight: normal; white-space: pre; visibility: visible;">[OVERALL] RunTime(ms)</text></g></g></svg>