<svg class="main-svg" xmlns="http://www.w3.org/2000/svg" xmlns:xlink="http://www.w3.org/1999/xlink" width="800" height="600"><rect x="0" y="0" width="800" height="600" style="fill: rgb(255, 255, 255); fill-opacity: 1;"/><defs id="defs-7562e6"><g class="clips"><clipPath class="axesclip" id="clip7562e6x"><rect x="80" y="0" width="640" height="600"/></clipPath><clipPath class="axesclip" id="clip7562e6y"><rect x="0" y="100" width="800" height="420"/></clipPath><clipPath class="axesclip" id="clip7562e6xy"><rect x="80" y="100" width="640" height="420"/></clipPath><clipPath class="plotclip" id="clip7562e6xyplot"><rect width="640" height="420"/></clipPath></g></defs><g class="layer-below"><g class="imagelayer"/><g class="shapelayer"/></g><g class="subplot xy"><rect x="80" y="100" width="640" height="420" style="stroke-width: 0; fill: rgb(255, 255, 255); fill-opacity: 1;"/><g class="layer-subplot"><g class="shapelayer"/><g class="imagelayer"/></g><g transform="translate(80,100)"><path class="ygrid crisp" d="M0,0h640" transform="translate(0,343.77)" style="stroke: rgb(238, 238, 238); stroke-opacity: 1; stroke-width: 1px;"/><path class="ygrid crisp" d="M0,0h640" transform="translate(0,267.55)" style="stroke: rgb(238, 238, 238); stroke-opacity: 1; stroke-width: 1px;"/><path class="ygrid crisp" d="M0,0h640" transform="translate(0,191.32)" style="stroke: rgb(238, 238, 238); stroke-opacity: 1; stroke-width: 1px;"/><path class="ygrid crisp" d="M0,0h640" transform="translate(0,115.1)" style="stroke: rgb(238, 238, 238); stroke-opacity: 1; stroke-width: 1px;"/><path class="ygrid crisp" d="M0,0h640" transform="translate(0,38.87)" style="stroke: rgb(238, 238, 238); stroke-opacity: 1; stroke-width: 1px;"/></g><g/><g transform="translate(80,100)"><path class="yzl zl crisp" d="M0,0h640" transform="translate(0,420)" style="stroke: rgb(68, 68, 68); stroke-opacity: 1; stroke-width: 1px;"/></g><g/><g transform="translate(80, 100)" clip-path="url(#clip7562e6xyplot)"><g class="imagelayer"/><g class="maplayer"/><g class="barlayer"/><g class="boxlayer"><g class="trace boxes" style="opacity: 1;"><path class="box" d="M27.2,332.33H79.47M27.2,340.81H79.47V320.23H27.2ZM53.33,340.81V342.15M53.33,320.23V309.53M40.27,342.15H66.4M40.27,309.53H66.4" style="stroke-width: 2px; stroke: rgb(31, 119, 180); stroke-opacity: 1; fill: rgb(31, 119, 180); fill-opacity: 0.5;"/><path class="box" d="M133.87,294.33H186.13M133.87,340.21H186.13V236.54H133.87ZM160,340.21V341.26M160,236.54V130.08M146.93,341.26H173.07M146.93,130.08H173.07" style="stroke-width: 2px; stroke: rgb(31, 119, 180); stroke-opacity: 1; fill: rgb(31, 119, 180); fill-opacity: 0.5;"/><path class="box" d="M240.53,287.36H292.8M240.53,341.18H292.8V221.62H240.53ZM266.67,341.18V341.95M266.67,221.62V197.71M253.6,341.95H279.73M253.6,197.71H279.73" style="stroke-width: 2px; stroke: rgb(31, 119, 180); stroke-opacity: 1; fill: rgb(31, 119, 180); fill-opacity: 0.5;"/><path class="box" d="M347.2,248.92H399.47M347.2,339.6H399.47V131.73H347.2ZM373.33,339.6V340.44M373.33,131.73V21M360.27,340.44H386.4M360.27,21H386.4" style="stroke-width: 2px; stroke: rgb(31, 119, 180); stroke-opacity: 1; fill: rgb(31, 119, 180); fill-opacity: 0.5;"/><path class="box" d="M453.87,272.48H506.13M453.87,337.83H506.13V190.88H453.87ZM480,337.83V338.94M480,190.88V145.64M466.93,338.94H493.07M466.93,145.64H493.07" style="stroke-width: 2px; stroke: rgb(31, 119, 180); stroke-opacity: 1; fill: rgb(31, 119, 180); fill-opacity: 0.5;"/><path class="box" d="M560.53,334.28H612.8M560.53,335.28H612.8V149.09H560.53ZM586.67,335.28V419.96M586.67,149.09V69.12M573.6,419.96H599.73M573.6,69.12H599.73" style="stroke-width: 2px; stroke: rgb(31, 119, 180); stroke-opacity: 1; fill: rgb(31, 119, 180); fill-opacity: 0.5;"/><g class="points"/><g class="points"/><g class="points"/><g class="points"/><g class="points"/><g class="points"/></g></g><g class="scatterlayer"/></g><g/><path class="crisp" transform="translate(80,100)" d="M-1,420.5h642" style="fill: none; stroke-width: 1px; stroke: rgb(0, 0, 0); stroke-opacity: 0;"/><path class="crisp" transform="translate(80,100)" d="M-0.5,-1v421" stroke-width="1px" style="fill: none; stroke: rgb(0, 0, 0); stroke-opacity: 0;"/><g/><g transform="translate(80,100)"><g class="xtick"><text text-anchor="middle" x="0" y="440" transform="translate(53.33,0)" style="font-family: 'Courier New', monospace; font-size: 18px; fill: rgb(127, 127, 127); fill-opacity: 1; visibility: visible; white-space: pre;" data-bb="44">1</text></g><g class="xtick"><text text-anchor="middle" x="0" y="440" transform="translate(160,0)" style="font-family: 'Courier New', monospace; font-size: 18px; fill: rgb(127, 127, 127); fill-opacity: 1; visibility: visible; white-space: pre;" data-bb="45">2</text></g><g class="xtick"><text text-anchor="middle" x="0" y="440" transform="translate(266.67,0)" style="font-family: 'Courier New', monospace; font-size: 18px; fill: rgb(127, 127, 127); fill-opacity: 1; visibility: visible; white-space: pre;" data-bb="46">3</text></g><g class="xtick"><text text-anchor="middle" x="0" y="440" transform="translate(373.33,0)" style="font-family: 'Courier New', monospace; font-size: 18px; fill: rgb(127, 127, 127); fill-opacity: 1; visibility: visible; white-space: pre;" data-bb="47">4</text></g><g class="xtick"><text text-anchor="middle" x="0" y="440" transform="translate(480,0)" style="font-family: 'Courier New', monospace; font-size: 18px; fill: rgb(127, 127, 127); fill-opacity: 1; visibility: visible; white-space: pre;" data-bb="48">5</text></g><g class="xtick"><text text-anchor="middle" x="0" y="440" transform="translate(586.67,0)" style="font-family: 'Courier New', monospace; font-size: 18px; fill: rgb(127, 127, 127); fill-opacity: 1; visibility: visible; white-space: pre;" data-bb="49">6</text></g></g><g transform="translate(80,100)"><g class="ytick" data-bb="52"><text text-anchor="end" x="-2" y="9" transform="translate(0,420)" style="font-family: 'Courier New', monospace; font-size: 18px; fill: rgb(127, 127, 127); fill-opacity: 1; visibility: visible; white-space: pre;">0</text></g><g class="ytick" data-bb="53"><text text-anchor="end" x="-2" y="9" transform="translate(0,343.77)" style="font-family: 'Courier New', monospace; font-size: 18px; fill: rgb(127, 127, 127); fill-opacity: 1; visibility: visible; white-space: pre;">0.5M</text></g><g class="ytick" data-bb="54"><text text-anchor="end" x="-2" y="9" transform="translate(0,267.55)" style="font-family: 'Courier New', monospace; font-size: 18px; fill: rgb(127, 127, 127); fill-opacity: 1; visibility: visible; white-space: pre;">1M</text></g><g class="ytick" data-bb="55"><text text-anchor="end" x="-2" y="9" transform="translate(0,191.32)" style="font-family: 'Courier New', monospace; font-size: 18px; fill: rgb(127, 127, 127); fill-opacity: 1; visibility: visible; white-space: pre;">1.5M</text></g><g class="ytick" data-bb="56"><text text-anchor="end" x="-2" y="9" transform="translate(0,115.1)" style="font-family: 'Courier New', monospace; font-size: 18px; fill: rgb(127, 127, 127); fill-opacity: 1; visibility: visible; white-space: pre;">2M</text></g><g class="ytick" data-bb="57"><text text-anchor="end" x="-2" y="9" transform="translate(0,38.87)" style="font-family: 'Courier New', monospace; font-size: 18px; fill: rgb(127, 127, 127); fill-opacity: 1; visibility: visible; white-space: pre;">2.5M</text></g></g><g/></g><g class="ternarylayer"/><g class="layer-above"><g class="imagelayer"/><g class="shapelayer"/></g><g class="pielayer"/><g class="glimages"/><g class="geoimages"/><text class="js-plot-link-container" y="591" text-anchor="end" x="793" style="font-family: 'Open Sans', Arial, sans-serif; font-size: 12px; fill: rgb(68, 68, 68); pointer-events: all;"><tspan class="js-link-to-tool"/><tspan class="js-link-spacer"/><tspan class="js-sourcelinks"/></text><g class="infolayer"><g class="g-gtitle"><text class="gtitle" x="400" y="50" text-anchor="middle" style="font-family: 'Courier New', monospace; font-size: 25px; fill: rgb(127, 127, 127); opacity: 1; font-weight: normal; white-space: pre; visibility: visible;">Execution Time, Workload e</text></g><g class="g-xtitle" data-bb="50" transform="translate(0,-3)"><text class="xtitle" x="400" y="596" text-anchor="middle" style="font-family: 'Courier New', monospace; font-size: 22px; fill: rgb(127, 127, 127); opacity: 1; font-weight: normal; white-space: pre; visibility: visible;">nn</text></g><g class="g-ytitle" data-bb="51" transform="translate(-0.203125,0)"><text class="ytitle" transform="rotate(-90,26,310) translate(0, 0)" x="26" y="310" text-anchor="middle" style="font-family: 'Courier New', monospace; font-size: 22px; fill: rgb(127, 127, 127); opacity: 1; font-weight: normal; white-space: pre; visibility: visible;">[OVERALL] RunTime(ms)</text></g></g></svg>