<svg class="main-svg" xmlns="http://www.w3.org/2000/svg" xmlns:xlink="http://www.w3.org/1999/xlink" width="800" height="600"><rect x="0" y="0" width="800" height="600" style="fill: rgb(255, 255, 255); fill-opacity: 1;"/><defs id="defs-545db7"><g class="clips"><clipPath class="axesclip" id="clip545db7x"><rect x="80" y="0" width="616" height="600"/></clipPath><clipPath class="axesclip" id="clip545db7y"><rect x="0" y="100" width="800" height="420"/></clipPath><clipPath class="axesclip" id="clip545db7xy"><rect x="80" y="100" width="616" height="420"/></clipPath><clipPath class="plotclip" id="clip545db7xyplot"><rect width="616" height="420"/></clipPath></g></defs><g class="layer-below"><g class="imagelayer"/><g class="shapelayer"/></g><g class="subplot xy"><rect x="80" y="100" width="616" height="420" style="stroke-width: 0; fill: rgb(255, 255, 255); fill-opacity: 1;"/><g class="layer-subplot"><g class="shapelayer"/><g class="imagelayer"/></g><g transform="translate(80,100)"><path class="ygrid crisp" d="M0,0h616" transform="translate(0,366.19)" style="stroke: rgb(238, 238, 238); stroke-opacity: 1; stroke-width: 1px;"/><path class="ygrid crisp" d="M0,0h616" transform="translate(0,312.45)" style="stroke: rgb(238, 238, 238); stroke-opacity: 1; stroke-width: 1px;"/><path class="ygrid crisp" d="M0,0h616" transform="translate(0,258.71)" style="stroke: rgb(238, 238, 238); stroke-opacity: 1; stroke-width: 1px;"/><path class="ygrid crisp" d="M0,0h616" transform="translate(0,204.97)" style="stroke: rgb(238, 238, 238); stroke-opacity: 1; stroke-width: 1px;"/><path class="ygrid crisp" d="M0,0h616" transform="translate(0,151.23)" style="stroke: rgb(238, 238, 238); stroke-opacity: 1; stroke-width: 1px;"/><path class="ygrid crisp" d="M0,0h616" transform="translate(0,97.49)" style="stroke: rgb(238, 238, 238); stroke-opacity: 1; stroke-width: 1px;"/><path class="ygrid crisp" d="M0,0h616" transform="translate(0,43.74)" style="stroke: rgb(238, 238, 238); stroke-opacity: 1; stroke-width: 1px;"/></g><g/><g transform="translate(80,100)"><path class="yzl zl crisp" d="M0,0h616" transform="translate(0,419.93)" style="stroke: rgb(68, 68, 68); stroke-opacity: 1; stroke-width: 1px;"/></g><g/><g transform="translate(80, 100)" clip-path="url(#clip545db7xyplot)"><g class="imagelayer"/><g class="maplayer"/><g class="barlayer"/><g class="boxlayer"><g class="trace boxes" style="opacity: 1;"><path class="box" d="M37.99,48.69H71.52M37.99,73.12H71.52V38.61H37.99ZM54.76,73.12V84.57M54.76,38.61V21M46.37,84.57H63.14M46.37,21H63.14" style="stroke-width: 2px; stroke: rgb(31, 119, 180); stroke-opacity: 1; fill: rgb(31, 119, 180); fill-opacity: 0.5;"/><path class="box" d="M243.32,394.97H276.86M243.32,395.42H276.86V394.5H243.32ZM260.09,395.42V395.85M260.09,394.5V391.46M251.7,395.85H268.47M251.7,391.46H268.47" style="stroke-width: 2px; stroke: rgb(31, 119, 180); stroke-opacity: 1; fill: rgb(31, 119, 180); fill-opacity: 0.5;"/><path class="box" d="M448.65,385.06H482.19M448.65,385.45H482.19V384.56H448.65ZM465.42,385.45V386.07M465.42,384.56V383.28M457.04,386.07H473.81M457.04,383.28H473.81" style="stroke-width: 2px; stroke: rgb(31, 119, 180); stroke-opacity: 1; fill: rgb(31, 119, 180); fill-opacity: 0.5;"/><path class="mean" d="M37.99,54.33H71.52" style="fill: none; stroke-width: 2; stroke-dasharray: 4px, 2px; stroke: rgb(31, 119, 180); stroke-opacity: 1;"/><path class="mean" d="M243.32,394.74H276.86" style="fill: none; stroke-width: 2; stroke-dasharray: 4px, 2px; stroke: rgb(31, 119, 180); stroke-opacity: 1;"/><path class="mean" d="M448.65,385.01H482.19" style="fill: none; stroke-width: 2; stroke-dasharray: 4px, 2px; stroke: rgb(31, 119, 180); stroke-opacity: 1;"/></g><g class="trace boxes" style="opacity: 1;"><path class="box" d="M85.9,392.89H119.44M85.9,394.97H119.44V391.73H85.9ZM102.67,394.97V397.19M102.67,391.73V388.58M94.28,397.19H111.05M94.28,388.58H111.05" style="stroke-width: 2px; stroke: rgb(255, 127, 14); stroke-opacity: 1; fill: rgb(255, 127, 14); fill-opacity: 0.5;"/><path class="box" d="M291.23,393.71H324.77M291.23,394.02H324.77V393.34H291.23ZM308,394.02V394.75M308,393.34V391.56M299.62,394.75H316.38M299.62,391.56H316.38" style="stroke-width: 2px; stroke: rgb(255, 127, 14); stroke-opacity: 1; fill: rgb(255, 127, 14); fill-opacity: 0.5;"/><path class="box" d="M496.56,386.11H530.1M496.56,386.53H530.1V385.63H496.56ZM513.33,386.53V387.1M513.33,385.63V384.98M504.95,387.1H521.72M504.95,384.98H521.72" style="stroke-width: 2px; stroke: rgb(255, 127, 14); stroke-opacity: 1; fill: rgb(255, 127, 14); fill-opacity: 0.5;"/><path class="mean" d="M85.9,393.07H119.44" style="fill: none; stroke-width: 2; stroke-dasharray: 4px, 2px; stroke: rgb(255, 127, 14); stroke-opacity: 1;"/><path class="mean" d="M291.23,393.55H324.77" style="fill: none; stroke-width: 2; stroke-dasharray: 4px, 2px; stroke: rgb(255, 127, 14); stroke-opacity: 1;"/><path class="mean" d="M496.56,386.08H530.1" style="fill: none; stroke-width: 2; stroke-dasharray: 4px, 2px; stroke: rgb(255, 127, 14); stroke-opacity: 1;"/></g><g class="trace boxes" style="opacity: 1;"><path class="box" d="M133.81,392.83H167.35M133.81,393.83H167.35V391.03H133.81ZM150.58,393.83V399M150.58,391.03V389.93M142.19,399H158.96M142.19,389.93H158.96" style="stroke-width: 2px; stroke: rgb(44, 160, 44); stroke-opacity: 1; fill: rgb(44, 160, 44); fill-opacity: 0.5;"/><path class="box" d="M339.14,394.6H372.68M339.14,394.92H372.68V394.25H339.14ZM355.91,394.92V395.4M355.91,394.25V389.34M347.53,395.4H364.3M347.53,389.34H364.3" style="stroke-width: 2px; stroke: rgb(44, 160, 44); stroke-opacity: 1; fill: rgb(44, 160, 44); fill-opacity: 0.5;"/><path class="box" d="M544.48,383.75H578.01M544.48,384.29H578.01V383.26H544.48ZM561.24,384.29V384.84M561.24,383.26V382.83M552.86,384.84H569.63M552.86,382.83H569.63" style="stroke-width: 2px; stroke: rgb(44, 160, 44); stroke-opacity: 1; fill: rgb(44, 160, 44); fill-opacity: 0.5;"/><path class="mean" d="M133.81,392.91H167.35" style="fill: none; stroke-width: 2; stroke-dasharray: 4px, 2px; stroke: rgb(44, 160, 44); stroke-opacity: 1;"/><path class="mean" d="M339.14,394.4H372.68" style="fill: none; stroke-width: 2; stroke-dasharray: 4px, 2px; stroke: rgb(44, 160, 44); stroke-opacity: 1;"/><path class="mean" d="M544.48,383.81H578.01" style="fill: none; stroke-width: 2; stroke-dasharray: 4px, 2px; stroke: rgb(44, 160, 44); stroke-opacity: 1;"/></g></g><g class="scatterlayer"/></g><g/><path class="crisp" transform="translate(80,100)" d="M-1,420.5h618" style="fill: none; stroke-width: 1px; stroke: rgb(0, 0, 0); stroke-opacity: 0;"/><path class="crisp" transform="translate(80,100)" d="M-0.5,-1v421" stroke-width="1px" style="fill: none; stroke: rgb(0, 0, 0); stroke-opacity: 0;"/><g/><g transform="translate(80,100)"><g class="xtick"><text text-anchor="middle" x="0" y="440" transform="translate(102.67,0)" style="font-family: 'Courier New', monospace; font-size: 18px; fill: rgb(127, 127, 127); fill-opacity: 1; visibility: visible; white-space: pre;" data-bb="47">1 Nodes</text></g><g class="xtick"><text text-anchor="middle" x="0" y="440" transform="translate(308,0)" style="font-family: 'Courier New', monospace; font-size: 18px; fill: rgb(127, 127, 127); fill-opacity: 1; visibility: visible; white-space: pre;" data-bb="48">3 Nodes</text></g><g class="xtick"><text text-anchor="middle" x="0" y="440" transform="translate(513.33,0)" style="font-family: 'Courier New', monospace; font-size: 18px; fill: rgb(127, 127, 127); fill-opacity: 1; visibility: visible; white-space: pre;" data-bb="49">6 Nodes</text></g></g><g transform="translate(80,100)"><g class="ytick" data-bb="52"><text text-anchor="end" x="-2" y="9" transform="translate(0,419.93)" style="font-family: 'Courier New', monospace; font-size: 18px; fill: rgb(127, 127, 127); fill-opacity: 1; visibility: visible; white-space: pre;">0</text></g><g class="ytick" data-bb="53"><text text-anchor="end" x="-2" y="9" transform="translate(0,366.19)" style="font-family: 'Courier New', monospace; font-size: 18px; fill: rgb(127, 127, 127); fill-opacity: 1; visibility: visible; white-space: pre;">50k</text></g><g class="ytick" data-bb="54"><text text-anchor="end" x="-2" y="9" transform="translate(0,312.45)" style="font-family: 'Courier New', monospace; font-size: 18px; fill: rgb(127, 127, 127); fill-opacity: 1; visibility: visible; white-space: pre;">100k</text></g><g class="ytick" data-bb="55"><text text-anchor="end" x="-2" y="9" transform="translate(0,258.71)" style="font-family: 'Courier New', monospace; font-size: 18px; fill: rgb(127, 127, 127); fill-opacity: 1; visibility: visible; white-space: pre;">150k</text></g><g class="ytick" data-bb="56"><text text-anchor="end" x="-2" y="9" transform="translate(0,204.97)" style="font-family: 'Courier New', monospace; font-size: 18px; fill: rgb(127, 127, 127); fill-opacity: 1; visibility: visible; white-space: pre;">200k</text></g><g class="ytick" data-bb="57"><text text-anchor="end" x="-2" y="9" transform="translate(0,151.23)" style="font-family: 'Courier New', monospace; font-size: 18px; fill: rgb(127, 127, 127); fill-opacity: 1; visibility: visible; white-space: pre;">250k</text></g><g class="ytick" data-bb="58"><text text-anchor="end" x="-2" y="9" transform="translate(0,97.49)" style="font-family: 'Courier New', monospace; font-size: 18px; fill: rgb(127, 127, 127); fill-opacity: 1; visibility: visible; white-space: pre;">300k</text></g><g class="ytick" data-bb="59"><text text-anchor="end" x="-2" y="9" transform="translate(0,43.74)" style="font-family: 'Courier New', monospace; font-size: 18px; fill: rgb(127, 127, 127); fill-opacity: 1; visibility: visible; white-space: pre;">350k</text></g></g><g/></g><g class="ternarylayer"/><g class="layer-above"><g class="imagelayer"/><g class="shapelayer"/></g><g class="pielayer"/><g class="glimages"/><g class="geoimages"/><text class="js-plot-link-container" y="591" text-anchor="end" x="793" style="font-family: 'Open Sans', Arial, sans-serif; font-size: 12px; fill: rgb(68, 68, 68); pointer-events: all;"><tspan class="js-link-to-tool"/><tspan class="js-link-spacer"/><tspan class="js-sourcelinks"/></text><defs id="topdefs-545db7"><clipPath id="legend545db7"><rect width="80" height="90" x="0" y="0"/></clipPath></defs><g class="infolayer"><g class="g-gtitle"><text class="gtitle" x="400" y="50" text-anchor="middle" style="font-family: 'Courier New', monospace; font-size: 25px; fill: rgb(127, 127, 127); opacity: 1; font-weight: normal; white-space: pre; visibility: visible;">Execution Time, Workload E</text></g><g class="g-xtitle" data-bb="50" transform="translate(0,-3)"><text class="xtitle" x="388" y="596" text-anchor="middle" style="font-family: 'Courier New', monospace; font-size: 22px; fill: rgb(127, 127, 127); opacity: 1; font-weight: normal; white-space: pre; visibility: visible;">NumberOfNodes</text></g><g class="g-ytitle" data-bb="51" transform="translate(-0.203125,0)"><text class="ytitle" transform="rotate(-90,26,310) translate(0, 0)" x="26" y="310" text-anchor="middle" style="font-family: 'Courier New', monospace; font-size: 22px; fill: rgb(127, 127, 127); opacity: 1; font-weight: normal; white-space: pre; visibility: visible;">[OVERALL] RunTime(ms)</text></g><g class="legend" pointer-events="all" transform="translate(708.32, 100)"><rect class="bg" shape-rendering="crispEdges" style="stroke: rgb(68, 68, 68); stroke-opacity: 1; fill: rgb(255, 255, 255); fill-opacity: 1; stroke-width: 0px;" width="80" height="90" x="0" y="0"/><g class="scrollbox" transform="translate(0, 0)" clip-path="url(#legend545db7)"><g class="groups"><g class="traces" transform="translate(0, 18.200000000000003)" style="opacity: 1;"><g class="legendfill"/><g class="legendlines"/><g class="legendsymbols" style="opacity: 1;"><g class="legendpoints"><path class="legendbox" d="M6,6H-6V-6H6Z" transform="translate(20,0)" style="stroke-width: 2px; fill: rgb(31, 119, 180); fill-opacity: 0.5; stroke: rgb(31, 119, 180); stroke-opacity: 1;"/></g></g><text class="legendtext user-select-none" x="40" y="7.0200000000000005" style="text-anchor: start; font-family: 'Courier New', monospace; font-size: 18px; fill: rgb(127, 127, 127); fill-opacity: 1; white-space: pre; visibility: visible;" data-bb="60">1GB</text><rect class="legendtoggle" pointer-events="all" style="cursor: pointer; fill: rgb(0, 0, 0); fill-opacity: 0;" width="119.59375" x="0" y="-13.200000000000001" height="26.400000000000002"/></g><g class="traces" transform="translate(0, 44.6)" style="opacity: 1;"><g class="legendfill"/><g class="legendlines"/><g class="legendsymbols" style="opacity: 1;"><g class="legendpoints"><path class="legendbox" d="M6,6H-6V-6H6Z" transform="translate(20,0)" style="stroke-width: 2px; fill: rgb(255, 127, 14); fill-opacity: 0.5; stroke: rgb(255, 127, 14); stroke-opacity: 1;"/></g></g><text class="legendtext user-select-none" x="40" y="7.0200000000000005" style="text-anchor: start; font-family: 'Courier New', monospace; font-size: 18px; fill: rgb(127, 127, 127); fill-opacity: 1; white-space: pre; visibility: visible;" data-bb="61">2GB</text><rect class="legendtoggle" pointer-events="all" style="cursor: pointer; fill: rgb(0, 0, 0); fill-opacity: 0;" width="119.59375" x="0" y="-13.200000000000001" height="26.400000000000002"/></g><g class="traces" transform="translate(0, 71)" style="opacity: 1;"><g class="legendfill"/><g class="legendlines"/><g class="legendsymbols" style="opacity: 1;"><g class="legendpoints"><path class="legendbox" d="M6,6H-6V-6H6Z" transform="translate(20,0)" style="stroke-width: 2px; fill: rgb(44, 160, 44); fill-opacity: 0.5; stroke: rgb(44, 160, 44); stroke-opacity: 1;"/></g></g><text class="legendtext user-select-none" x="40" y="7.0200000000000005" style="text-anchor: start; font-family: 'Courier New', monospace; font-size: 18px; fill: rgb(127, 127, 127); fill-opacity: 1; white-space: pre; visibility: visible;" data-bb="62">4GB</text><rect class="legendtoggle" pointer-events="all" width="119.59375" style="cursor: pointer; fill: rgb(0, 0, 0); fill-opacity: 0;" x="0" y="-13.200000000000001" height="26.400000000000002"/></g></g></g><rect class="scrollbar" rx="20" ry="2" width="0" height="0" style="fill: rgb(128, 139, 164); fill-opacity: 1;"/></g></g></svg>