<svg class="main-svg" xmlns="http://www.w3.org/2000/svg" xmlns:xlink="http://www.w3.org/1999/xlink" width="800" height="600"><rect x="0" y="0" width="800" height="600" style="fill: rgb(255, 255, 255); fill-opacity: 1;"/><defs id="defs-c7067c"><g class="clips"><clipPath class="axesclip" id="clipc7067cx"><rect x="80" y="0" width="640" height="600"/></clipPath><clipPath class="axesclip" id="clipc7067cy"><rect x="0" y="100" width="800" height="420"/></clipPath><clipPath class="axesclip" id="clipc7067cxy"><rect x="80" y="100" width="640" height="420"/></clipPath><clipPath class="plotclip" id="clipc7067cxyplot"><rect width="640" height="420"/></clipPath></g></defs><g class="layer-below"><g class="imagelayer"/><g class="shapelayer"/></g><g class="subplot xy"><rect x="80" y="100" width="640" height="420" style="stroke-width: 0; fill: rgb(255, 255, 255); fill-opacity: 1;"/><g class="layer-subplot"><g class="shapelayer"/><g class="imagelayer"/></g><g transform="translate(80,100)"><path class="ygrid crisp" d="M0,0h640" transform="translate(0,372.62)" style="stroke: rgb(238, 238, 238); stroke-opacity: 1; stroke-width: 1px;"/><path class="ygrid crisp" d="M0,0h640" transform="translate(0,325.25)" style="stroke: rgb(238, 238, 238); stroke-opacity: 1; stroke-width: 1px;"/><path class="ygrid crisp" d="M0,0h640" transform="translate(0,277.87)" style="stroke: rgb(238, 238, 238); stroke-opacity: 1; stroke-width: 1px;"/><path class="ygrid crisp" d="M0,0h640" transform="translate(0,230.49)" style="stroke: rgb(238, 238, 238); stroke-opacity: 1; stroke-width: 1px;"/><path class="ygrid crisp" d="M0,0h640" transform="translate(0,183.12)" style="stroke: rgb(238, 238, 238); stroke-opacity: 1; stroke-width: 1px;"/><path class="ygrid crisp" d="M0,0h640" transform="translate(0,135.74)" style="stroke: rgb(238, 238, 238); stroke-opacity: 1; stroke-width: 1px;"/><path class="ygrid crisp" d="M0,0h640" transform="translate(0,88.36)" style="stroke: rgb(238, 238, 238); stroke-opacity: 1; stroke-width: 1px;"/><path class="ygrid crisp" d="M0,0h640" transform="translate(0,40.99)" style="stroke: rgb(238, 238, 238); stroke-opacity: 1; stroke-width: 1px;"/></g><g/><g transform="translate(80,100)"><path class="yzl zl crisp" d="M0,0h640" transform="translate(0,420)" style="stroke: rgb(68, 68, 68); stroke-opacity: 1; stroke-width: 1px;"/></g><g/><g transform="translate(80, 100)" clip-path="url(#clipc7067cxyplot)"><g class="imagelayer"/><g class="maplayer"/><g class="barlayer"/><g class="boxlayer"><g class="trace boxes" style="opacity: 1;"><path class="box" d="M27.2,346.97H79.47M27.2,358.44H79.47V335.46H27.2ZM53.33,358.44V367.26M53.33,335.46V318.11M40.27,367.26H66.4M40.27,318.11H66.4" style="stroke-width: 2px; stroke: rgb(31, 119, 180); stroke-opacity: 1; fill: rgb(31, 119, 180); fill-opacity: 0.5;"/><path class="box" d="M133.87,249.38H186.13M133.87,258.39H186.13V233.19H133.87ZM160,258.39V293.15M160,233.19V212.77M146.93,293.15H173.07M146.93,212.77H173.07" style="stroke-width: 2px; stroke: rgb(31, 119, 180); stroke-opacity: 1; fill: rgb(31, 119, 180); fill-opacity: 0.5;"/><path class="box" d="M240.53,287.6H292.8M240.53,291.28H292.8V285.15H240.53ZM266.67,291.28V298.42M266.67,285.15V284.21M253.6,298.42H279.73M253.6,284.21H279.73" style="stroke-width: 2px; stroke: rgb(31, 119, 180); stroke-opacity: 1; fill: rgb(31, 119, 180); fill-opacity: 0.5;"/><path class="box" d="M347.2,160.62H399.47M347.2,172.17H399.47V150.92H347.2ZM373.33,172.17V202.24M373.33,150.92V123.84M360.27,202.24H386.4M360.27,123.84H386.4" style="stroke-width: 2px; stroke: rgb(31, 119, 180); stroke-opacity: 1; fill: rgb(31, 119, 180); fill-opacity: 0.5;"/><path class="box" d="M453.87,243.52H506.13M453.87,245.14H506.13V236.95H453.87ZM480,245.14V249.38M480,236.95V229.96M466.93,249.38H493.07M466.93,229.96H493.07" style="stroke-width: 2px; stroke: rgb(31, 119, 180); stroke-opacity: 1; fill: rgb(31, 119, 180); fill-opacity: 0.5;"/><path class="box" d="M560.53,149.67H612.8M560.53,174H612.8V128.51H560.53ZM586.67,174V206.82M586.67,128.51V61.79M573.6,206.82H599.73M573.6,61.79H599.73" style="stroke-width: 2px; stroke: rgb(31, 119, 180); stroke-opacity: 1; fill: rgb(31, 119, 180); fill-opacity: 0.5;"/><g class="points"/><g class="points"><path transform="translate(160,304.55)" d="M3,0A3,3 0 1,1 0,-3A3,3 0 0,1 3,0Z" style="opacity: 1; stroke-width: 0px; fill: rgb(31, 119, 180); fill-opacity: 1;"/><path transform="translate(160,301.6)" d="M3,0A3,3 0 1,1 0,-3A3,3 0 0,1 3,0Z" style="opacity: 1; stroke-width: 0px; fill: rgb(31, 119, 180); fill-opacity: 1;"/></g><g class="points"><path transform="translate(266.67,300.99)" d="M3,0A3,3 0 1,1 0,-3A3,3 0 0,1 3,0Z" style="opacity: 1; stroke-width: 0px; fill: rgb(31, 119, 180); fill-opacity: 1;"/><path transform="translate(266.67,274.02)" d="M3,0A3,3 0 1,1 0,-3A3,3 0 0,1 3,0Z" style="opacity: 1; stroke-width: 0px; fill: rgb(31, 119, 180); fill-opacity: 1;"/><path transform="translate(266.67,238.99)" d="M3,0A3,3 0 1,1 0,-3A3,3 0 0,1 3,0Z" style="opacity: 1; stroke-width: 0px; fill: rgb(31, 119, 180); fill-opacity: 1;"/></g><g class="points"><path transform="translate(373.33,220.54)" d="M3,0A3,3 0 1,1 0,-3A3,3 0 0,1 3,0Z" style="opacity: 1; stroke-width: 0px; fill: rgb(31, 119, 180); fill-opacity: 1;"/><path transform="translate(373.33,210.02)" d="M3,0A3,3 0 1,1 0,-3A3,3 0 0,1 3,0Z" style="opacity: 1; stroke-width: 0px; fill: rgb(31, 119, 180); fill-opacity: 1;"/><path transform="translate(373.33,209.44)" d="M3,0A3,3 0 1,1 0,-3A3,3 0 0,1 3,0Z" style="opacity: 1; stroke-width: 0px; fill: rgb(31, 119, 180); fill-opacity: 1;"/><path transform="translate(373.33,74.78)" d="M3,0A3,3 0 1,1 0,-3A3,3 0 0,1 3,0Z" style="opacity: 1; stroke-width: 0px; fill: rgb(31, 119, 180); fill-opacity: 1;"/></g><g class="points"><path transform="translate(480,197.86)" d="M3,0A3,3 0 1,1 0,-3A3,3 0 0,1 3,0Z" style="opacity: 1; stroke-width: 0px; fill: rgb(31, 119, 180); fill-opacity: 1;"/><path transform="translate(480,190.34)" d="M3,0A3,3 0 1,1 0,-3A3,3 0 0,1 3,0Z" style="opacity: 1; stroke-width: 0px; fill: rgb(31, 119, 180); fill-opacity: 1;"/></g><g class="points"><path transform="translate(586.67,56.68)" d="M3,0A3,3 0 1,1 0,-3A3,3 0 0,1 3,0Z" style="opacity: 1; stroke-width: 0px; fill: rgb(31, 119, 180); fill-opacity: 1;"/><path transform="translate(586.67,45.92)" d="M3,0A3,3 0 1,1 0,-3A3,3 0 0,1 3,0Z" style="opacity: 1; stroke-width: 0px; fill: rgb(31, 119, 180); fill-opacity: 1;"/><path transform="translate(586.67,40.84)" d="M3,0A3,3 0 1,1 0,-3A3,3 0 0,1 3,0Z" style="opacity: 1; stroke-width: 0px; fill: rgb(31, 119, 180); fill-opacity: 1;"/><path transform="translate(586.67,21)" d="M3,0A3,3 0 1,1 0,-3A3,3 0 0,1 3,0Z" style="opacity: 1; stroke-width: 0px; fill: rgb(31, 119, 180); fill-opacity: 1;"/></g></g></g><g class="scatterlayer"/></g><g/><path class="crisp" transform="translate(80,100)" d="M-1,420.5h642" style="fill: none; stroke-width: 1px; stroke: rgb(0, 0, 0); stroke-opacity: 0;"/><path class="crisp" transform="translate(80,100)" d="M-0.5,-1v421" stroke-width="1px" style="fill: none; stroke: rgb(0, 0, 0); stroke-opacity: 0;"/><g/><g transform="translate(80,100)"><g class="xtick"><text text-anchor="middle" x="0" y="440" transform="translate(53.33,0)" style="font-family: 'Courier New', monospace; font-size: 18px; fill: rgb(127, 127, 127); fill-opacity: 1; visibility: visible; white-space: pre;" data-bb="50">1</text></g><g class="xtick"><text text-anchor="middle" x="0" y="440" transform="translate(160,0)" style="font-family: 'Courier New', monospace; font-size: 18px; fill: rgb(127, 127, 127); fill-opacity: 1; visibility: visible; white-space: pre;" data-bb="51">2</text></g><g class="xtick"><text text-anchor="middle" x="0" y="440" transform="translate(266.67,0)" style="font-family: 'Courier New', monospace; font-size: 18px; fill: rgb(127, 127, 127); fill-opacity: 1; visibility: visible; white-space: pre;" data-bb="52">3</text></g><g class="xtick"><text text-anchor="middle" x="0" y="440" transform="translate(373.33,0)" style="font-family: 'Courier New', monospace; font-size: 18px; fill: rgb(127, 127, 127); fill-opacity: 1; visibility: visible; white-space: pre;" data-bb="53">4</text></g><g class="xtick"><text text-anchor="middle" x="0" y="440" transform="translate(480,0)" style="font-family: 'Courier New', monospace; font-size: 18px; fill: rgb(127, 127, 127); fill-opacity: 1; visibility: visible; white-space: pre;" data-bb="54">5</text></g><g class="xtick"><text text-anchor="middle" x="0" y="440" transform="translate(586.67,0)" style="font-family: 'Courier New', monospace; font-size: 18px; fill: rgb(127, 127, 127); fill-opacity: 1; visibility: visible; white-space: pre;" data-bb="55">6</text></g></g><g transform="translate(80,100)"><g class="ytick" data-bb="58"><text text-anchor="end" x="-2" y="9" transform="translate(0,420)" style="font-family: 'Courier New', monospace; font-size: 18px; fill: rgb(127, 127, 127); fill-opacity: 1; visibility: visible; white-space: pre;">0</text></g><g class="ytick" data-bb="59"><text text-anchor="end" x="-2" y="9" transform="translate(0,372.62)" style="font-family: 'Courier New', monospace; font-size: 18px; fill: rgb(127, 127, 127); fill-opacity: 1; visibility: visible; white-space: pre;">50k</text></g><g class="ytick" data-bb="60"><text text-anchor="end" x="-2" y="9" transform="translate(0,325.25)" style="font-family: 'Courier New', monospace; font-size: 18px; fill: rgb(127, 127, 127); fill-opacity: 1; visibility: visible; white-space: pre;">100k</text></g><g class="ytick" data-bb="61"><text text-anchor="end" x="-2" y="9" transform="translate(0,277.87)" style="font-family: 'Courier New', monospace; font-size: 18px; fill: rgb(127, 127, 127); fill-opacity: 1; visibility: visible; white-space: pre;">150k</text></g><g class="ytick" data-bb="62"><text text-anchor="end" x="-2" y="9" transform="translate(0,230.49)" style="font-family: 'Courier New', monospace; font-size: 18px; fill: rgb(127, 127, 127); fill-opacity: 1; visibility: visible; white-space: pre;">200k</text></g><g class="ytick" data-bb="63"><text text-anchor="end" x="-2" y="9" transform="translate(0,183.12)" style="font-family: 'Courier New', monospace; font-size: 18px; fill: rgb(127, 127, 127); fill-opacity: 1; visibility: visible; white-space: pre;">250k</text></g><g class="ytick" data-bb="64"><text text-anchor="end" x="-2" y="9" transform="translate(0,135.74)" style="font-family: 'Courier New', monospace; font-size: 18px; fill: rgb(127, 127, 127); fill-opacity: 1; visibility: visible; white-space: pre;">300k</text></g><g class="ytick" data-bb="65"><text text-anchor="end" x="-2" y="9" transform="translate(0,88.36)" style="font-family: 'Courier New', monospace; font-size: 18px; fill: rgb(127, 127, 127); fill-opacity: 1; visibility: visible; white-space: pre;">350k</text></g><g class="ytick" data-bb="66"><text text-anchor="end" x="-2" y="9" transform="translate(0,40.99)" style="font-family: 'Courier New', monospace; font-size: 18px; fill: rgb(127, 127, 127); fill-opacity: 1; visibility: visible; white-space: pre;">400k</text></g></g><g/></g><g class="ternarylayer"/><g class="layer-above"><g class="imagelayer"/><g class="shapelayer"/></g><g class="pielayer"/><g class="glimages"/><g class="geoimages"/><text class="js-plot-link-container" y="591" text-anchor="end" x="793" style="font-family: 'Open Sans', Arial, sans-serif; font-size: 12px; fill: rgb(68, 68, 68); pointer-events: all;"><tspan class="js-link-to-tool"/><tspan class="js-link-spacer"/><tspan class="js-sourcelinks"/></text><g class="infolayer"><g class="g-gtitle"><text class="gtitle" x="400" y="50" text-anchor="middle" style="font-family: 'Courier New', monospace; font-size: 25px; fill: rgb(127, 127, 127); opacity: 1; font-weight: normal; white-space: pre; visibility: visible;">Execution Time, Workload c</text></g><g class="g-xtitle" data-bb="56" transform="translate(0,-3)"><text class="xtitle" x="400" y="596" text-anchor="middle" style="font-family: 'Courier New', monospace; font-size: 22px; fill: rgb(127, 127, 127); opacity: 1; font-weight: normal; white-space: pre; visibility: visible;">nn</text></g><g class="g-ytitle" data-bb="57" transform="translate(-0.203125,0)"><text class="ytitle" transform="rotate(-90,26,310) translate(0, 0)" x="26" y="310" text-anchor="middle" style="font-family: 'Courier New', monospace; font-size: 22px; fill: rgb(127, 127, 127); opacity: 1; font-weight: normal; white-space: pre; visibility: visible;">[OVERALL] RunTime(ms)</text></g></g></svg>