<svg class="main-svg" xmlns="http://www.w3.org/2000/svg" xmlns:xlink="http://www.w3.org/1999/xlink" width="800" height="600"><rect x="0" y="0" width="800" height="600" style="fill: rgb(255, 255, 255); fill-opacity: 1;"/><defs id="defs-73d7a6"><g class="clips"><clipPath class="axesclip" id="clip73d7a6x"><rect x="80" y="0" width="616" height="600"/></clipPath><clipPath class="axesclip" id="clip73d7a6y"><rect x="0" y="100" width="800" height="420"/></clipPath><clipPath class="axesclip" id="clip73d7a6xy"><rect x="80" y="100" width="616" height="420"/></clipPath><clipPath class="plotclip" id="clip73d7a6xyplot"><rect width="616" height="420"/></clipPath></g></defs><g class="layer-below"><g class="imagelayer"/><g class="shapelayer"/></g><g class="subplot xy"><rect x="80" y="100" width="616" height="420" style="stroke-width: 0; fill: rgb(255, 255, 255); fill-opacity: 1;"/><g class="layer-subplot"><g class="shapelayer"/><g class="imagelayer"/></g><g transform="translate(80,100)"><path class="xgrid crisp" d="M0,0v420" transform="translate(98.35,0)" style="stroke: rgb(238, 238, 238); stroke-opacity: 1; stroke-width: 1px;"/><path class="xgrid crisp" d="M0,0v420" transform="translate(201.88,0)" style="stroke: rgb(238, 238, 238); stroke-opacity: 1; stroke-width: 1px;"/><path class="xgrid crisp" d="M0,0v420" transform="translate(305.41,0)" style="stroke: rgb(238, 238, 238); stroke-opacity: 1; stroke-width: 1px;"/><path class="xgrid crisp" d="M0,0v420" transform="translate(408.94,0)" style="stroke: rgb(238, 238, 238); stroke-opacity: 1; stroke-width: 1px;"/><path class="xgrid crisp" d="M0,0v420" transform="translate(512.47,0)" style="stroke: rgb(238, 238, 238); stroke-opacity: 1; stroke-width: 1px;"/><path class="ygrid crisp" d="M0,0h616" transform="translate(0,408.13)" style="stroke: rgb(238, 238, 238); stroke-opacity: 1; stroke-width: 1px;"/><path class="ygrid crisp" d="M0,0h616" transform="translate(0,355.33)" style="stroke: rgb(238, 238, 238); stroke-opacity: 1; stroke-width: 1px;"/><path class="ygrid crisp" d="M0,0h616" transform="translate(0,302.53)" style="stroke: rgb(238, 238, 238); stroke-opacity: 1; stroke-width: 1px;"/><path class="ygrid crisp" d="M0,0h616" transform="translate(0,249.73)" style="stroke: rgb(238, 238, 238); stroke-opacity: 1; stroke-width: 1px;"/><path class="ygrid crisp" d="M0,0h616" transform="translate(0,196.93)" style="stroke: rgb(238, 238, 238); stroke-opacity: 1; stroke-width: 1px;"/><path class="ygrid crisp" d="M0,0h616" transform="translate(0,144.13)" style="stroke: rgb(238, 238, 238); stroke-opacity: 1; stroke-width: 1px;"/><path class="ygrid crisp" d="M0,0h616" transform="translate(0,91.33)" style="stroke: rgb(238, 238, 238); stroke-opacity: 1; stroke-width: 1px;"/><path class="ygrid crisp" d="M0,0h616" transform="translate(0,38.53)" style="stroke: rgb(238, 238, 238); stroke-opacity: 1; stroke-width: 1px;"/></g><g/><g transform="translate(80,100)"/><g/><g transform="translate(80, 100)" clip-path="url(#clip73d7a6xyplot)"><g class="imagelayer"/><g class="maplayer"/><g class="barlayer"/><g class="boxlayer"/><g class="scatterlayer"><g class="trace scatter" style="stroke-miterlimit: 2; opacity: 1;"><path class="js-line" d="M0,21L5.18,271.96L10.35,347.78L15.53,382.9L20.71,392.14L25.88,389.76L31.06,392.4L36.24,392.77L41.41,384.59L46.59,394.35L51.76,392.66L56.94,378.14L62.12,397.79L67.29,382.58L72.47,383.48L77.65,379.73L82.82,382.42L88,382.16L93.18,376.14L98.35,381.63L103.53,392.98L108.71,398.21L113.88,393.3L124.24,397.84L129.41,393.35L134.59,396.84L139.76,396.62L150.12,395.88L155.29,359.98L170.82,357.55L176,360.24L181.18,356.28L186.35,397.52L191.53,396.78L196.71,387.75L201.88,397.42L207.06,394.2L212.24,397.05L217.41,396.2L222.59,396.62L227.76,395.94L232.94,396.84L238.12,360.83L243.29,358.55L248.47,345.09L253.65,364.36L258.82,360.09L264,343.08L269.18,332.37L274.35,362.15L279.53,385.48L284.71,393.03L289.88,389.97L295.06,395.99L300.24,393.67L305.41,396.99L310.59,395.2L315.76,396.99L320.94,355.33L326.12,361.14L331.29,355.65L336.47,360.19L341.65,360.56L346.82,356.39L352,395.57L362.35,394.67L367.53,397.57L372.71,395.88L377.88,397.42L383.06,396.57L388.24,394.67L393.41,395.46L398.59,393.88L403.76,356.55L408.94,360.19L414.12,358.19L419.29,353.8L424.47,356.39L429.65,360.83L434.82,395.88L440,395.88L445.18,397.15L450.35,395.88L455.53,395.62L460.71,397.1L465.88,397.31L471.06,396.31L476.24,394.25L481.41,396.41L486.59,356.39L491.76,358.4L496.94,361.99L502.12,354.81L507.29,355.7L512.47,364.47L517.65,397.31L522.82,396.57L528,396.36L533.18,394.14L538.35,397.2L543.53,397.1L548.71,395.73L553.88,397.63L559.06,398.21L564.24,396.94L569.41,394.88L574.59,355.6L579.76,362.04L584.94,357.6L595.29,360.3L600.47,356.65L605.65,393.35L610.82,387.75L616,397.26" style="vector-effect: non-scaling-stroke; fill: none; stroke: rgb(31, 119, 180); stroke-opacity: 1; stroke-width: 2px;"/></g><g class="trace scatter" style="stroke-miterlimit: 2; opacity: 1;"><path class="js-line" d="M0,281.73L5.18,374.24L10.35,382.79L15.53,363.36L20.71,357.5L25.88,390.08L31.06,381.1L36.24,388.97L41.41,363.78L46.59,360.03L51.76,362.94L56.94,356.6L62.12,365.05L67.29,354.33L72.47,393.3L82.82,398.37L88,394.99L93.18,396.73L98.35,395.88L103.53,395.3L108.71,393.35L113.88,390.76L119.06,398.1L124.24,346.89L129.41,363.99L134.59,365.84L139.76,364.84L144.94,362.99L150.12,365.15L155.29,392.93L160.47,395.62L165.65,397.1L170.82,397.36L176,396.2L181.18,395.94L186.35,395.73L191.53,398.42L201.88,394.56L207.06,368.01L212.24,362.78L217.41,363.94L222.59,363.89L227.76,362.09L232.94,361.09L238.12,397.52L243.29,397.73L248.47,395.88L253.65,396.1L258.82,397.52L264,397.2L269.18,399L274.35,395.25L279.53,389.92L284.71,396.04L289.88,395.78L295.06,360.51L300.24,362.57L305.41,369.17L310.59,366.26L315.76,364.57L320.94,366L326.12,395.67L331.29,393.24L336.47,394.46L341.65,398.31L346.82,393.14L352,396.04L357.18,395.09L362.35,380.89L367.53,390.55L372.71,395.15L377.88,337.12L383.06,353.54L388.24,395.78L393.41,360.24L398.59,346.2L403.76,397.36L408.94,394.09L414.12,396.73L419.29,395.25L424.47,397.68L429.65,396.47L434.82,392.19L440,392.51L445.18,395.46L450.35,396.84L455.53,392.56L460.71,363.99L465.88,358.19L471.06,360.4L476.24,358.66L481.41,355.97L486.59,393.4L491.76,396.68L496.94,396.1L502.12,397.89L507.29,396.99L512.47,395.09L517.65,391.24L522.82,394.51L528,396.73L533.18,391.45L538.35,397.26L543.53,354.65L548.71,365.74L553.88,395.57L559.06,366L569.41,370.07L574.59,398.74L579.76,393.98L584.94,396.84L590.12,395.94L595.29,396.25L600.47,397.89L605.65,396.89L610.82,396.04L616,398.84" style="vector-effect: non-scaling-stroke; fill: none; stroke: rgb(255, 127, 14); stroke-opacity: 1; stroke-width: 2px;"/></g></g></g><g/><path class="crisp" transform="translate(80,100)" d="M-1,420.5h618" style="fill: none; stroke-width: 1px; stroke: rgb(0, 0, 0); stroke-opacity: 0;"/><path class="crisp" transform="translate(80,100)" d="M-0.5,-1v421" stroke-width="1px" style="fill: none; stroke: rgb(0, 0, 0); stroke-opacity: 0;"/><g/><g transform="translate(80,100)"><g class="xtick"><text text-anchor="middle" x="0" y="440" transform="translate(98.35,0)" style="font-family: 'Courier New', monospace; font-size: 18px; fill: rgb(127, 127, 127); fill-opacity: 1; visibility: visible; white-space: pre;" data-bb="58">20</text></g><g class="xtick"><text text-anchor="middle" x="0" y="440" transform="translate(201.88,0)" style="font-family: 'Courier New', monospace; font-size: 18px; fill: rgb(127, 127, 127); fill-opacity: 1; visibility: visible; white-space: pre;" data-bb="59">40</text></g><g class="xtick"><text text-anchor="middle" x="0" y="440" transform="translate(305.41,0)" style="font-family: 'Courier New', monospace; font-size: 18px; fill: rgb(127, 127, 127); fill-opacity: 1; visibility: visible; white-space: pre;" data-bb="60">60</text></g><g class="xtick"><text text-anchor="middle" x="0" y="440" transform="translate(408.94,0)" style="font-family: 'Courier New', monospace; font-size: 18px; fill: rgb(127, 127, 127); fill-opacity: 1; visibility: visible; white-space: pre;" data-bb="61">80</text></g><g class="xtick"><text text-anchor="middle" x="0" y="440" transform="translate(512.47,0)" style="font-family: 'Courier New', monospace; font-size: 18px; fill: rgb(127, 127, 127); fill-opacity: 1; visibility: visible; white-space: pre;" data-bb="62">100</text></g><g class="xtick"><text text-anchor="middle" x="0" y="440" transform="translate(616,0)" style="font-family: 'Courier New', monospace; font-size: 18px; fill: rgb(127, 127, 127); fill-opacity: 1; visibility: visible; white-space: pre;" data-bb="63">120</text></g></g><g transform="translate(80,100)"><g class="ytick" data-bb="66"><text text-anchor="end" x="-2" y="9" transform="translate(0,408.13)" style="font-family: 'Courier New', monospace; font-size: 18px; fill: rgb(127, 127, 127); fill-opacity: 1; visibility: visible; white-space: pre;">3k</text></g><g class="ytick" data-bb="67"><text text-anchor="end" x="-2" y="9" transform="translate(0,355.33)" style="font-family: 'Courier New', monospace; font-size: 18px; fill: rgb(127, 127, 127); fill-opacity: 1; visibility: visible; white-space: pre;">4k</text></g><g class="ytick" data-bb="68"><text text-anchor="end" x="-2" y="9" transform="translate(0,302.53)" style="font-family: 'Courier New', monospace; font-size: 18px; fill: rgb(127, 127, 127); fill-opacity: 1; visibility: visible; white-space: pre;">5k</text></g><g class="ytick" data-bb="69"><text text-anchor="end" x="-2" y="9" transform="translate(0,249.73)" style="font-family: 'Courier New', monospace; font-size: 18px; fill: rgb(127, 127, 127); fill-opacity: 1; visibility: visible; white-space: pre;">6k</text></g><g class="ytick" data-bb="70"><text text-anchor="end" x="-2" y="9" transform="translate(0,196.93)" style="font-family: 'Courier New', monospace; font-size: 18px; fill: rgb(127, 127, 127); fill-opacity: 1; visibility: visible; white-space: pre;">7k</text></g><g class="ytick" data-bb="71"><text text-anchor="end" x="-2" y="9" transform="translate(0,144.13)" style="font-family: 'Courier New', monospace; font-size: 18px; fill: rgb(127, 127, 127); fill-opacity: 1; visibility: visible; white-space: pre;">8k</text></g><g class="ytick" data-bb="72"><text text-anchor="end" x="-2" y="9" transform="translate(0,91.33)" style="font-family: 'Courier New', monospace; font-size: 18px; fill: rgb(127, 127, 127); fill-opacity: 1; visibility: visible; white-space: pre;">9k</text></g><g class="ytick" data-bb="73"><text text-anchor="end" x="-2" y="9" transform="translate(0,38.53)" style="font-family: 'Courier New', monospace; font-size: 18px; fill: rgb(127, 127, 127); fill-opacity: 1; visibility: visible; white-space: pre;">10k</text></g></g><g/></g><g class="ternarylayer"/><g class="layer-above"><g class="imagelayer"/><g class="shapelayer"/></g><g class="pielayer"/><g class="glimages"/><g class="geoimages"/><text class="js-plot-link-container" y="591" text-anchor="end" x="793" style="font-family: 'Open Sans', Arial, sans-serif; font-size: 12px; fill: rgb(68, 68, 68); pointer-events: all;"><tspan class="js-link-to-tool"/><tspan class="js-link-spacer"/><tspan class="js-sourcelinks"/></text><defs id="topdefs-73d7a6"><clipPath id="legend73d7a6"><rect width="80" height="63" x="0" y="0"/></clipPath></defs><g class="infolayer"><g class="g-gtitle"><text class="gtitle" x="400" y="50" text-anchor="middle" style="font-family: 'Courier New', monospace; font-size: 25px; fill: rgb(127, 127, 127); opacity: 1; font-weight: normal; white-space: pre; visibility: visible;">Execution Time</text></g><g class="g-xtitle" data-bb="64" transform="translate(0,-3)"><text class="xtitle" x="388" y="596" text-anchor="middle" style="font-family: 'Courier New', monospace; font-size: 22px; fill: rgb(127, 127, 127); opacity: 1; font-weight: normal; white-space: pre; visibility: visible;">t</text></g><g class="g-ytitle" data-bb="65"><text class="ytitle" transform="rotate(-90,26,310) translate(0, 0)" x="26" y="310" text-anchor="middle" style="font-family: 'Courier New', monospace; font-size: 22px; fill: rgb(127, 127, 127); opacity: 1; font-weight: normal; white-space: pre; visibility: visible;">[OVERALL] RunTime(ms)</text></g><g class="legend" pointer-events="all" transform="translate(708.32, 100)"><rect class="bg" shape-rendering="crispEdges" style="stroke: rgb(68, 68, 68); stroke-opacity: 1; fill: rgb(255, 255, 255); fill-opacity: 1; stroke-width: 0px;" width="80" height="63" x="0" y="0"/><g class="scrollbox" transform="translate(0, 0)" clip-path="url(#legend73d7a6)"><g class="groups"><g class="traces" transform="translate(0, 18.200000000000003)" style="opacity: 1;"><g class="legendfill"/><g class="legendlines"><path class="js-line" d="M5,0h30" style="fill: none; stroke: rgb(31, 119, 180); stroke-opacity: 1; stroke-width: 2px;"/></g><g class="legendsymbols" style="opacity: 1;"><g class="legendpoints"/></g><text class="legendtext user-select-none" x="40" y="7.0200000000000005" style="text-anchor: start; font-family: 'Courier New', monospace; font-size: 18px; fill: rgb(127, 127, 127); fill-opacity: 1; white-space: pre; visibility: visible;" data-bb="74">1GB</text><rect class="legendtoggle" pointer-events="all" style="cursor: pointer; fill: rgb(0, 0, 0); fill-opacity: 0;" width="119.59375" x="0" y="-13.200000000000001" height="26.400000000000002"/></g><g class="traces" transform="translate(0, 44.6)" style="opacity: 1;"><g class="legendfill"/><g class="legendlines"><path class="js-line" d="M5,0h30" style="fill: none; stroke: rgb(255, 127, 14); stroke-opacity: 1; stroke-width: 2px;"/></g><g class="legendsymbols" style="opacity: 1;"><g class="legendpoints"/></g><text class="legendtext user-select-none" x="40" y="7.0200000000000005" style="text-anchor: start; font-family: 'Courier New', monospace; font-size: 18px; fill: rgb(127, 127, 127); fill-opacity: 1; white-space: pre; visibility: visible;" data-bb="75">4GB</text><rect class="legendtoggle" pointer-events="all" width="119.59375" style="cursor: pointer; fill: rgb(0, 0, 0); fill-opacity: 0;" x="0" y="-13.200000000000001" height="26.400000000000002"/></g></g></g><rect class="scrollbar" rx="20" ry="2" width="0" height="0" style="fill: rgb(128, 139, 164); fill-opacity: 1;"/></g></g></svg>